<svg width="335" height="108" viewBox="20 24 335 108" fill="none" xmlns="http://www.w3.org/2000/svg">

  <rect x="20" y="24" width="335" height="108" fill="white" />
  <path d="M20 132V88.9948L68.6201 85.6594C92.5491 84.0179 117.544 85.4697 138.117 89.6961C168.25 95.8865 206.901 95.9621 237.27 89.8899L238.432 89.6576C259.462 85.4528 284.838 84.053 309.08 85.7604L355 88.9948V132H20Z" fill="#2948FF" fill-opacity="0.1" />

  <path d="M243 66.667H240.333V64.0003C240.333 63.6467 240.193 63.3076 239.943 63.0575C239.693 62.8075 239.353 62.667 239 62.667C238.646 62.667 238.307 62.8075 238.057 63.0575C237.807 63.3076 237.667 63.6467 237.667 64.0003L237.714 66.667H235C234.646 66.667 234.307 66.8075 234.057 67.0575C233.807 67.3076 233.667 67.6467 233.667 68.0003C233.667 68.3539 233.807 68.6931 234.057 68.9431C234.307 69.1932 234.646 69.3337 235 69.3337L237.714 69.2863L237.667 72.0003C237.667 72.3539 237.807 72.6931 238.057 72.9431C238.307 73.1932 238.646 73.3337 239 73.3337C239.353 73.3337 239.693 73.1932 239.943 72.9431C240.193 72.6931 240.333 72.3539 240.333 72.0003V69.2863L243 69.3337C243.353 69.3337 243.693 69.1932 243.943 68.9431C244.193 68.6931 244.333 68.3539 244.333 68.0003C244.333 67.6467 244.193 67.3076 243.943 67.0575C243.693 66.8075 243.353 66.667 243 66.667Z" fill="white" />
</svg>
