<svg width="668" height="472" viewBox="0 0 668 472" fill="none" xmlns="http://www.w3.org/2000/svg">
    <path d="M65 410.025H663" stroke="black" />
    <path d="M107.714 424.935V410.025" stroke="#0B132A" />
    <path d="M102.016 458.072C101.392 458.072 100.792 457.972 100.216 457.772C99.648 457.564 99.208 457.3 98.896 456.98L99.244 456.296C99.54 456.584 99.936 456.828 100.432 457.028C100.936 457.22 101.464 457.316 102.016 457.316C102.544 457.316 102.972 457.252 103.3 457.124C103.636 456.988 103.88 456.808 104.032 456.584C104.192 456.36 104.272 456.112 104.272 455.84C104.272 455.512 104.176 455.248 103.984 455.048C103.8 454.848 103.556 454.692 103.252 454.58C102.948 454.46 102.612 454.356 102.244 454.268C101.876 454.18 101.508 454.088 101.14 453.992C100.772 453.888 100.432 453.752 100.12 453.584C99.816 453.416 99.568 453.196 99.376 452.924C99.192 452.644 99.1 452.28 99.1 451.832C99.1 451.416 99.208 451.036 99.424 450.692C99.648 450.34 99.988 450.06 100.444 449.852C100.9 449.636 101.484 449.528 102.196 449.528C102.668 449.528 103.136 449.596 103.6 449.732C104.064 449.86 104.464 450.04 104.8 450.272L104.5 450.98C104.14 450.74 103.756 450.564 103.348 450.452C102.948 450.34 102.56 450.284 102.184 450.284C101.68 450.284 101.264 450.352 100.936 450.488C100.608 450.624 100.364 450.808 100.204 451.04C100.052 451.264 99.976 451.52 99.976 451.808C99.976 452.136 100.068 452.4 100.252 452.6C100.444 452.8 100.692 452.956 100.996 453.068C101.308 453.18 101.648 453.28 102.016 453.368C102.384 453.456 102.748 453.552 103.108 453.656C103.476 453.76 103.812 453.896 104.116 454.064C104.428 454.224 104.676 454.44 104.86 454.712C105.052 454.984 105.148 455.34 105.148 455.78C105.148 456.188 105.036 456.568 104.812 456.92C104.588 457.264 104.244 457.544 103.78 457.76C103.324 457.968 102.736 458.072 102.016 458.072ZM110.851 458V456.608L110.815 456.38V454.052C110.815 453.516 110.663 453.104 110.359 452.816C110.063 452.528 109.619 452.384 109.027 452.384C108.619 452.384 108.231 452.452 107.863 452.588C107.495 452.724 107.183 452.904 106.927 453.128L106.543 452.492C106.863 452.22 107.247 452.012 107.695 451.868C108.143 451.716 108.615 451.64 109.111 451.64C109.927 451.64 110.555 451.844 110.995 452.252C111.443 452.652 111.667 453.264 111.667 454.088V458H110.851ZM108.679 458.06C108.207 458.06 107.795 457.984 107.443 457.832C107.099 457.672 106.835 457.456 106.651 457.184C106.467 456.904 106.375 456.584 106.375 456.224C106.375 455.896 106.451 455.6 106.603 455.336C106.763 455.064 107.019 454.848 107.371 454.688C107.731 454.52 108.211 454.436 108.811 454.436H110.983V455.072H108.835C108.227 455.072 107.803 455.18 107.563 455.396C107.331 455.612 107.215 455.88 107.215 456.2C107.215 456.56 107.355 456.848 107.635 457.064C107.915 457.28 108.307 457.388 108.811 457.388C109.291 457.388 109.703 457.28 110.047 457.064C110.399 456.84 110.655 456.52 110.815 456.104L111.007 456.692C110.847 457.108 110.567 457.44 110.167 457.688C109.775 457.936 109.279 458.06 108.679 458.06ZM115.973 458.06C115.381 458.06 114.925 457.9 114.605 457.58C114.285 457.26 114.125 456.808 114.125 456.224V450.308H114.977V456.176C114.977 456.544 115.069 456.828 115.253 457.028C115.445 457.228 115.717 457.328 116.069 457.328C116.445 457.328 116.757 457.22 117.005 457.004L117.305 457.616C117.137 457.768 116.933 457.88 116.693 457.952C116.461 458.024 116.221 458.06 115.973 458.06ZM112.997 452.408V451.7H116.897V452.408H112.997Z" fill="#0B132A" />
    <path d="M184.907 458.072C184.283 458.072 183.683 457.972 183.107 457.772C182.539 457.564 182.099 457.3 181.787 456.98L182.135 456.296C182.431 456.584 182.827 456.828 183.323 457.028C183.827 457.22 184.355 457.316 184.907 457.316C185.435 457.316 185.863 457.252 186.191 457.124C186.527 456.988 186.771 456.808 186.923 456.584C187.083 456.36 187.163 456.112 187.163 455.84C187.163 455.512 187.067 455.248 186.875 455.048C186.691 454.848 186.447 454.692 186.143 454.58C185.839 454.46 185.503 454.356 185.135 454.268C184.767 454.18 184.399 454.088 184.031 453.992C183.663 453.888 183.323 453.752 183.011 453.584C182.707 453.416 182.459 453.196 182.267 452.924C182.083 452.644 181.991 452.28 181.991 451.832C181.991 451.416 182.099 451.036 182.315 450.692C182.539 450.34 182.879 450.06 183.335 449.852C183.791 449.636 184.375 449.528 185.087 449.528C185.559 449.528 186.027 449.596 186.491 449.732C186.955 449.86 187.355 450.04 187.691 450.272L187.391 450.98C187.031 450.74 186.647 450.564 186.239 450.452C185.839 450.34 185.451 450.284 185.075 450.284C184.571 450.284 184.155 450.352 183.827 450.488C183.499 450.624 183.255 450.808 183.095 451.04C182.943 451.264 182.867 451.52 182.867 451.808C182.867 452.136 182.959 452.4 183.143 452.6C183.335 452.8 183.583 452.956 183.887 453.068C184.199 453.18 184.539 453.28 184.907 453.368C185.275 453.456 185.639 453.552 185.999 453.656C186.367 453.76 186.703 453.896 187.007 454.064C187.319 454.224 187.567 454.44 187.751 454.712C187.943 454.984 188.039 455.34 188.039 455.78C188.039 456.188 187.927 456.568 187.703 456.92C187.479 457.264 187.135 457.544 186.671 457.76C186.215 457.968 185.627 458.072 184.907 458.072ZM192.397 458.06C191.861 458.06 191.393 457.96 190.993 457.76C190.593 457.56 190.281 457.26 190.057 456.86C189.841 456.46 189.733 455.96 189.733 455.36V451.7H190.585V455.264C190.585 455.936 190.749 456.444 191.077 456.788C191.413 457.124 191.881 457.292 192.481 457.292C192.921 457.292 193.301 457.204 193.621 457.028C193.949 456.844 194.197 456.58 194.365 456.236C194.541 455.892 194.629 455.48 194.629 455V451.7H195.481V458H194.665V456.272L194.797 456.584C194.597 457.048 194.285 457.412 193.861 457.676C193.445 457.932 192.957 458.06 192.397 458.06ZM201.072 451.64C201.584 451.64 202.032 451.74 202.416 451.94C202.808 452.132 203.112 452.428 203.328 452.828C203.552 453.228 203.664 453.732 203.664 454.34V458H202.812V454.424C202.812 453.76 202.644 453.26 202.308 452.924C201.98 452.58 201.516 452.408 200.916 452.408C200.468 452.408 200.076 452.5 199.74 452.684C199.412 452.86 199.156 453.12 198.972 453.464C198.796 453.8 198.708 454.208 198.708 454.688V458H197.856V451.7H198.672V453.428L198.54 453.104C198.74 452.648 199.06 452.292 199.5 452.036C199.94 451.772 200.464 451.64 201.072 451.64Z" fill="#0B132A" />
    <path d="M265.821 458V449.6H266.553L270.393 456.152H270.009L273.813 449.6H274.545V458H273.693V450.932H273.897L270.393 456.932H269.973L266.445 450.932H266.673V458H265.821ZM279.67 458.06C279.062 458.06 278.514 457.924 278.026 457.652C277.546 457.372 277.166 456.992 276.886 456.512C276.606 456.024 276.466 455.468 276.466 454.844C276.466 454.212 276.606 453.656 276.886 453.176C277.166 452.696 277.546 452.32 278.026 452.048C278.506 451.776 279.054 451.64 279.67 451.64C280.294 451.64 280.846 451.776 281.326 452.048C281.814 452.32 282.194 452.696 282.466 453.176C282.746 453.656 282.886 454.212 282.886 454.844C282.886 455.468 282.746 456.024 282.466 456.512C282.194 456.992 281.814 457.372 281.326 457.652C280.838 457.924 280.286 458.06 279.67 458.06ZM279.67 457.304C280.126 457.304 280.53 457.204 280.882 457.004C281.234 456.796 281.51 456.508 281.71 456.14C281.918 455.764 282.022 455.332 282.022 454.844C282.022 454.348 281.918 453.916 281.71 453.548C281.51 453.18 281.234 452.896 280.882 452.696C280.53 452.488 280.13 452.384 279.682 452.384C279.234 452.384 278.834 452.488 278.482 452.696C278.13 452.896 277.85 453.18 277.642 453.548C277.434 453.916 277.33 454.348 277.33 454.844C277.33 455.332 277.434 455.764 277.642 456.14C277.85 456.508 278.13 456.796 278.482 457.004C278.834 457.204 279.23 457.304 279.67 457.304ZM287.842 451.64C288.354 451.64 288.802 451.74 289.186 451.94C289.578 452.132 289.882 452.428 290.098 452.828C290.322 453.228 290.434 453.732 290.434 454.34V458H289.582V454.424C289.582 453.76 289.414 453.26 289.078 452.924C288.75 452.58 288.286 452.408 287.686 452.408C287.238 452.408 286.846 452.5 286.51 452.684C286.182 452.86 285.926 453.12 285.742 453.464C285.566 453.8 285.478 454.208 285.478 454.688V458H284.626V451.7H285.442V453.428L285.31 453.104C285.51 452.648 285.83 452.292 286.27 452.036C286.71 451.772 287.234 451.64 287.842 451.64Z" fill="#0B132A" />
    <path d="M354.984 458V450.368H352.032V449.6H358.824V450.368H355.872V458H354.984ZM362.503 458.06C361.967 458.06 361.499 457.96 361.099 457.76C360.699 457.56 360.387 457.26 360.163 456.86C359.947 456.46 359.839 455.96 359.839 455.36V451.7H360.691V455.264C360.691 455.936 360.855 456.444 361.183 456.788C361.519 457.124 361.987 457.292 362.587 457.292C363.027 457.292 363.407 457.204 363.727 457.028C364.055 456.844 364.303 456.58 364.471 456.236C364.647 455.892 364.735 455.48 364.735 455V451.7H365.587V458H364.771V456.272L364.903 456.584C364.703 457.048 364.391 457.412 363.967 457.676C363.551 457.932 363.063 458.06 362.503 458.06ZM370.637 458.06C369.981 458.06 369.405 457.924 368.909 457.652C368.413 457.372 368.025 456.992 367.745 456.512C367.465 456.024 367.325 455.468 367.325 454.844C367.325 454.22 367.457 453.668 367.721 453.188C367.993 452.708 368.361 452.332 368.825 452.06C369.297 451.78 369.825 451.64 370.409 451.64C371.001 451.64 371.525 451.776 371.981 452.048C372.445 452.312 372.809 452.688 373.073 453.176C373.337 453.656 373.469 454.212 373.469 454.844C373.469 454.884 373.465 454.928 373.457 454.976C373.457 455.016 373.457 455.06 373.457 455.108H367.973V454.472H373.001L372.665 454.724C372.665 454.268 372.565 453.864 372.365 453.512C372.173 453.152 371.909 452.872 371.573 452.672C371.237 452.472 370.849 452.372 370.409 452.372C369.977 452.372 369.589 452.472 369.245 452.672C368.901 452.872 368.633 453.152 368.441 453.512C368.249 453.872 368.153 454.284 368.153 454.748V454.88C368.153 455.36 368.257 455.784 368.465 456.152C368.681 456.512 368.977 456.796 369.353 457.004C369.737 457.204 370.173 457.304 370.661 457.304C371.045 457.304 371.401 457.236 371.729 457.1C372.065 456.964 372.353 456.756 372.593 456.476L373.073 457.028C372.793 457.364 372.441 457.62 372.017 457.796C371.601 457.972 371.141 458.06 370.637 458.06Z" fill="#0B132A" />
    <path d="M437.249 458L434.417 449.6H435.329L437.981 457.508H437.525L440.261 449.6H441.077L443.777 457.508H443.345L446.021 449.6H446.873L444.041 458H443.105L440.525 450.5H440.765L438.173 458H437.249ZM450.516 458.06C449.86 458.06 449.284 457.924 448.788 457.652C448.292 457.372 447.904 456.992 447.624 456.512C447.344 456.024 447.204 455.468 447.204 454.844C447.204 454.22 447.336 453.668 447.6 453.188C447.872 452.708 448.24 452.332 448.704 452.06C449.176 451.78 449.704 451.64 450.288 451.64C450.88 451.64 451.404 451.776 451.86 452.048C452.324 452.312 452.688 452.688 452.952 453.176C453.216 453.656 453.348 454.212 453.348 454.844C453.348 454.884 453.344 454.928 453.336 454.976C453.336 455.016 453.336 455.06 453.336 455.108H447.852V454.472H452.88L452.544 454.724C452.544 454.268 452.444 453.864 452.244 453.512C452.052 453.152 451.788 452.872 451.452 452.672C451.116 452.472 450.728 452.372 450.288 452.372C449.856 452.372 449.468 452.472 449.124 452.672C448.78 452.872 448.512 453.152 448.32 453.512C448.128 453.872 448.032 454.284 448.032 454.748V454.88C448.032 455.36 448.136 455.784 448.344 456.152C448.56 456.512 448.856 456.796 449.232 457.004C449.616 457.204 450.052 457.304 450.54 457.304C450.924 457.304 451.28 457.236 451.608 457.1C451.944 456.964 452.232 456.756 452.472 456.476L452.952 457.028C452.672 457.364 452.32 457.62 451.896 457.796C451.48 457.972 451.02 458.06 450.516 458.06ZM457.591 458.06C456.991 458.06 456.451 457.924 455.971 457.652C455.499 457.38 455.127 457.004 454.855 456.524C454.583 456.036 454.447 455.476 454.447 454.844C454.447 454.204 454.583 453.644 454.855 453.164C455.127 452.684 455.499 452.312 455.971 452.048C456.451 451.776 456.991 451.64 457.591 451.64C458.143 451.64 458.635 451.764 459.067 452.012C459.507 452.26 459.855 452.624 460.111 453.104C460.375 453.576 460.507 454.156 460.507 454.844C460.507 455.524 460.379 456.104 460.123 456.584C459.867 457.064 459.519 457.432 459.079 457.688C458.647 457.936 458.151 458.06 457.591 458.06ZM457.651 457.304C458.099 457.304 458.499 457.204 458.851 457.004C459.211 456.796 459.491 456.508 459.691 456.14C459.899 455.764 460.003 455.332 460.003 454.844C460.003 454.348 459.899 453.916 459.691 453.548C459.491 453.18 459.211 452.896 458.851 452.696C458.499 452.488 458.099 452.384 457.651 452.384C457.211 452.384 456.815 452.488 456.463 452.696C456.111 452.896 455.831 453.18 455.623 453.548C455.415 453.916 455.311 454.348 455.311 454.844C455.311 455.332 455.415 455.764 455.623 456.14C455.831 456.508 456.111 456.796 456.463 457.004C456.815 457.204 457.211 457.304 457.651 457.304ZM460.027 458V456.104L460.111 454.832L459.991 453.56V449.096H460.843V458H460.027Z" fill="#0B132A" />
    <path d="M524.469 458V450.368H521.517V449.6H528.309V450.368H525.357V458H524.469ZM532.763 451.64C533.275 451.64 533.723 451.74 534.107 451.94C534.499 452.132 534.803 452.428 535.019 452.828C535.243 453.228 535.355 453.732 535.355 454.34V458H534.503V454.424C534.503 453.76 534.335 453.26 533.999 452.924C533.671 452.58 533.207 452.408 532.607 452.408C532.159 452.408 531.767 452.5 531.431 452.684C531.103 452.86 530.847 453.12 530.663 453.464C530.487 453.8 530.399 454.208 530.399 454.688V458H529.547V449.096H530.399V453.428L530.231 453.104C530.431 452.648 530.751 452.292 531.191 452.036C531.631 451.772 532.155 451.64 532.763 451.64ZM540.261 458.06C539.725 458.06 539.257 457.96 538.857 457.76C538.457 457.56 538.145 457.26 537.921 456.86C537.705 456.46 537.597 455.96 537.597 455.36V451.7H538.449V455.264C538.449 455.936 538.613 456.444 538.941 456.788C539.277 457.124 539.745 457.292 540.345 457.292C540.785 457.292 541.165 457.204 541.485 457.028C541.813 456.844 542.061 456.58 542.229 456.236C542.405 455.892 542.493 455.48 542.493 455V451.7H543.345V458H542.529V456.272L542.661 456.584C542.461 457.048 542.149 457.412 541.725 457.676C541.309 457.932 540.821 458.06 540.261 458.06Z" fill="#0B132A" />
    <path d="M612.449 453.668H616.889V454.436H612.449V453.668ZM612.545 458H611.657V449.6H617.417V450.368H612.545V458ZM618.954 458V451.7H619.77V453.416L619.686 453.116C619.862 452.636 620.158 452.272 620.574 452.024C620.99 451.768 621.506 451.64 622.122 451.64V452.468C622.09 452.468 622.058 452.468 622.026 452.468C621.994 452.46 621.962 452.456 621.93 452.456C621.266 452.456 620.746 452.66 620.37 453.068C619.994 453.468 619.806 454.04 619.806 454.784V458H618.954ZM623.676 458V451.7H624.528V458H623.676ZM624.108 450.308C623.932 450.308 623.784 450.248 623.664 450.128C623.544 450.008 623.484 449.864 623.484 449.696C623.484 449.528 623.544 449.388 623.664 449.276C623.784 449.156 623.932 449.096 624.108 449.096C624.284 449.096 624.432 449.152 624.552 449.264C624.672 449.376 624.732 449.516 624.732 449.684C624.732 449.86 624.672 450.008 624.552 450.128C624.44 450.248 624.292 450.308 624.108 450.308Z" fill="#0B132A" />
    <path d="M193.143 424.935V410.025" stroke="#0B132A" />
    <path d="M278.571 424.935V410.025" stroke="#0B132A" />
    <path d="M364 424.935V410.025" stroke="#0B132A" />
    <path d="M449.428 424.935V410.025" stroke="#0B132A" />
    <path d="M534.856 424.935V410.025" stroke="#0B132A" />
    <path d="M620.285 424.935V410.025" stroke="#0B132A" />
    <path d="M59 410.025H65" stroke="#0B132A" />
    <path d="M50.25 402.91C49.608 402.91 49.0611 402.736 48.6094 402.386C48.1577 402.034 47.8125 401.524 47.5739 400.856C47.3352 400.186 47.2159 399.376 47.2159 398.427C47.2159 397.484 47.3352 396.679 47.5739 396.011C47.8153 395.341 48.1619 394.829 48.6136 394.477C49.0682 394.122 49.6136 393.945 50.25 393.945C50.8864 393.945 51.4304 394.122 51.8821 394.477C52.3366 394.829 52.6832 395.341 52.9219 396.011C53.1634 396.679 53.2841 397.484 53.2841 398.427C53.2841 399.376 53.1648 400.186 52.9261 400.856C52.6875 401.524 52.3423 402.034 51.8906 402.386C51.4389 402.736 50.892 402.91 50.25 402.91ZM50.25 401.973C50.8864 401.973 51.3807 401.666 51.733 401.052C52.0852 400.439 52.2614 399.564 52.2614 398.427C52.2614 397.672 52.1804 397.028 52.0185 396.497C51.8594 395.966 51.6293 395.561 51.3281 395.283C51.0298 395.004 50.6705 394.865 50.25 394.865C49.6193 394.865 49.1264 395.176 48.7713 395.798C48.4162 396.418 48.2386 397.294 48.2386 398.427C48.2386 399.183 48.3182 399.825 48.4773 400.354C48.6364 400.882 48.8651 401.284 49.1634 401.56C49.4645 401.835 49.8267 401.973 50.25 401.973Z" fill="#0B132A" />
    <path d="M57.041 310.625H65.0002" stroke="#0B132A" />
    <path d="M14.2452 303.391V302.624L17.1258 299.471C17.4639 299.101 17.7423 298.78 17.9611 298.508C18.1798 298.232 18.3418 297.973 18.4469 297.732C18.5548 297.488 18.6088 297.232 18.6088 296.965C18.6088 296.658 18.5349 296.393 18.3872 296.168C18.2423 295.944 18.0435 295.77 17.7906 295.648C17.5378 295.526 17.2537 295.465 16.9383 295.465C16.6031 295.465 16.3105 295.535 16.0605 295.674C15.8133 295.81 15.6216 296.002 15.4852 296.249C15.3517 296.496 15.2849 296.786 15.2849 297.118H14.2793C14.2793 296.607 14.3972 296.158 14.633 295.772C14.8687 295.385 15.1898 295.084 15.596 294.868C16.0051 294.652 16.4639 294.544 16.9724 294.544C17.4838 294.544 17.9369 294.652 18.3318 294.868C18.7267 295.084 19.0364 295.375 19.2608 295.742C19.4852 296.108 19.5974 296.516 19.5974 296.965C19.5974 297.286 19.5392 297.6 19.4227 297.907C19.3091 298.211 19.1102 298.55 18.8261 298.925C18.5449 299.297 18.1543 299.752 17.6543 300.289L15.694 302.385V302.454H19.7508V303.391H14.2452ZM24.2381 303.51C23.7381 303.51 23.2878 303.411 22.8872 303.212C22.4866 303.013 22.1656 302.741 21.9241 302.394C21.6827 302.047 21.5506 301.652 21.5278 301.209H22.5506C22.5903 301.604 22.7693 301.931 23.0875 302.189C23.4085 302.445 23.792 302.573 24.2381 302.573C24.596 302.573 24.9142 302.489 25.1926 302.321C25.4739 302.154 25.694 301.924 25.8531 301.631C26.0151 301.336 26.096 301.002 26.096 300.63C26.096 300.249 26.0122 299.91 25.8446 299.611C25.6798 299.31 25.4526 299.073 25.1628 298.9C24.873 298.726 24.542 298.638 24.1699 298.635C23.9028 298.633 23.6287 298.674 23.3474 298.759C23.0662 298.841 22.8347 298.948 22.6528 299.079L21.6642 298.959L22.1926 294.664H26.7267V295.601H23.079L22.7722 298.175H22.8233C23.0023 298.033 23.2267 297.915 23.4966 297.821C23.7665 297.728 24.0477 297.681 24.3403 297.681C24.8744 297.681 25.3503 297.809 25.7679 298.064C26.1883 298.317 26.5179 298.664 26.7565 299.104C26.998 299.544 27.1187 300.047 27.1187 300.613C27.1187 301.169 26.9937 301.667 26.7437 302.104C26.4966 302.539 26.1557 302.883 25.721 303.135C25.2864 303.385 24.792 303.51 24.2381 303.51ZM31.6582 303.51C31.0161 303.51 30.4692 303.336 30.0175 302.986C29.5658 302.634 29.2207 302.124 28.982 301.456C28.7434 300.786 28.6241 299.976 28.6241 299.027C28.6241 298.084 28.7434 297.279 28.982 296.611C29.2235 295.941 29.5701 295.429 30.0218 295.077C30.4763 294.722 31.0218 294.544 31.6582 294.544C32.2945 294.544 32.8386 294.722 33.2903 295.077C33.7448 295.429 34.0914 295.941 34.33 296.611C34.5715 297.279 34.6923 298.084 34.6923 299.027C34.6923 299.976 34.5729 300.786 34.3343 301.456C34.0957 302.124 33.7505 302.634 33.2988 302.986C32.8471 303.336 32.3002 303.51 31.6582 303.51ZM31.6582 302.573C32.2945 302.573 32.7888 302.266 33.1411 301.652C33.4934 301.039 33.6695 300.164 33.6695 299.027C33.6695 298.272 33.5886 297.628 33.4266 297.097C33.2675 296.566 33.0374 296.161 32.7363 295.883C32.438 295.604 32.0786 295.465 31.6582 295.465C31.0275 295.465 30.5346 295.776 30.1795 296.398C29.8244 297.018 29.6468 297.894 29.6468 299.027C29.6468 299.783 29.7263 300.425 29.8854 300.954C30.0445 301.482 30.2732 301.884 30.5715 302.16C30.8727 302.435 31.2349 302.573 31.6582 302.573ZM39.1582 303.51C38.5161 303.51 37.9692 303.336 37.5175 302.986C37.0658 302.634 36.7207 302.124 36.482 301.456C36.2434 300.786 36.1241 299.976 36.1241 299.027C36.1241 298.084 36.2434 297.279 36.482 296.611C36.7235 295.941 37.0701 295.429 37.5218 295.077C37.9763 294.722 38.5218 294.544 39.1582 294.544C39.7945 294.544 40.3386 294.722 40.7903 295.077C41.2448 295.429 41.5914 295.941 41.83 296.611C42.0715 297.279 42.1923 298.084 42.1923 299.027C42.1923 299.976 42.0729 300.786 41.8343 301.456C41.5957 302.124 41.2505 302.634 40.7988 302.986C40.3471 303.336 39.8002 303.51 39.1582 303.51ZM39.1582 302.573C39.7945 302.573 40.2888 302.266 40.6411 301.652C40.9934 301.039 41.1695 300.164 41.1695 299.027C41.1695 298.272 41.0886 297.628 40.9266 297.097C40.7675 296.566 40.5374 296.161 40.2363 295.883C39.938 295.604 39.5786 295.465 39.1582 295.465C38.5275 295.465 38.0346 295.776 37.6795 296.398C37.3244 297.018 37.1468 297.894 37.1468 299.027C37.1468 299.783 37.2263 300.425 37.3854 300.954C37.5445 301.482 37.7732 301.884 38.0715 302.16C38.3727 302.435 38.7349 302.573 39.1582 302.573ZM46.6582 303.51C46.0161 303.51 45.4692 303.336 45.0175 302.986C44.5658 302.634 44.2207 302.124 43.982 301.456C43.7434 300.786 43.6241 299.976 43.6241 299.027C43.6241 298.084 43.7434 297.279 43.982 296.611C44.2235 295.941 44.5701 295.429 45.0218 295.077C45.4763 294.722 46.0218 294.544 46.6582 294.544C47.2945 294.544 47.8386 294.722 48.2903 295.077C48.7448 295.429 49.0914 295.941 49.33 296.611C49.5715 297.279 49.6923 298.084 49.6923 299.027C49.6923 299.976 49.5729 300.786 49.3343 301.456C49.0957 302.124 48.7505 302.634 48.2988 302.986C47.8471 303.336 47.3002 303.51 46.6582 303.51ZM46.6582 302.573C47.2945 302.573 47.7888 302.266 48.1411 301.652C48.4934 301.039 48.6695 300.164 48.6695 299.027C48.6695 298.272 48.5886 297.628 48.4266 297.097C48.2675 296.566 48.0374 296.161 47.7363 295.883C47.438 295.604 47.0786 295.465 46.6582 295.465C46.0275 295.465 45.5346 295.776 45.1795 296.398C44.8244 297.018 44.6468 297.894 44.6468 299.027C44.6468 299.783 44.7263 300.425 44.8854 300.954C45.0445 301.482 45.2732 301.884 45.5715 302.16C45.8727 302.435 46.2349 302.573 46.6582 302.573Z" fill="#0B132A" />
    <path d="M57.041 211.225H65.0002" stroke="#0B132A" />
    <path d="M15.106 204.063C14.506 204.063 13.934 203.967 13.39 203.775C12.846 203.575 12.414 203.311 12.094 202.983L12.514 202.299C12.778 202.579 13.138 202.811 13.594 202.995C14.058 203.179 14.558 203.271 15.094 203.271C15.806 203.271 16.346 203.115 16.714 202.803C17.09 202.483 17.278 202.067 17.278 201.555C17.278 201.195 17.19 200.887 17.014 200.631C16.846 200.367 16.558 200.163 16.15 200.019C15.742 199.875 15.182 199.803 14.47 199.803H12.682L13.114 195.591H17.71V196.359H13.462L13.906 195.939L13.534 199.467L13.09 199.035H14.662C15.51 199.035 16.19 199.139 16.702 199.347C17.214 199.555 17.582 199.847 17.806 200.223C18.038 200.591 18.154 201.023 18.154 201.519C18.154 201.991 18.042 202.423 17.818 202.815C17.594 203.199 17.258 203.503 16.81 203.727C16.362 203.951 15.794 204.063 15.106 204.063ZM22.5989 204.063C21.9509 204.063 21.3749 203.895 20.8709 203.559C20.3669 203.215 19.9709 202.727 19.6829 202.095C19.3949 201.455 19.2509 200.687 19.2509 199.791C19.2509 198.895 19.3949 198.131 19.6829 197.499C19.9709 196.859 20.3669 196.371 20.8709 196.035C21.3749 195.691 21.9509 195.519 22.5989 195.519C23.2469 195.519 23.8229 195.691 24.3269 196.035C24.8309 196.371 25.2269 196.859 25.5149 197.499C25.8109 198.131 25.9589 198.895 25.9589 199.791C25.9589 200.687 25.8109 201.455 25.5149 202.095C25.2269 202.727 24.8309 203.215 24.3269 203.559C23.8229 203.895 23.2469 204.063 22.5989 204.063ZM22.5989 203.271C23.0949 203.271 23.5269 203.139 23.8949 202.875C24.2629 202.603 24.5509 202.211 24.7589 201.699C24.9669 201.179 25.0709 200.543 25.0709 199.791C25.0709 199.039 24.9669 198.407 24.7589 197.895C24.5509 197.375 24.2629 196.983 23.8949 196.719C23.5269 196.447 23.0949 196.311 22.5989 196.311C22.1189 196.311 21.6909 196.447 21.3149 196.719C20.9389 196.983 20.6469 197.375 20.4389 197.895C20.2309 198.407 20.1269 199.039 20.1269 199.791C20.1269 200.543 20.2309 201.179 20.4389 201.699C20.6469 202.211 20.9389 202.603 21.3149 202.875C21.6909 203.139 22.1189 203.271 22.5989 203.271ZM30.5442 204.063C29.8962 204.063 29.3202 203.895 28.8162 203.559C28.3122 203.215 27.9162 202.727 27.6282 202.095C27.3402 201.455 27.1962 200.687 27.1962 199.791C27.1962 198.895 27.3402 198.131 27.6282 197.499C27.9162 196.859 28.3122 196.371 28.8162 196.035C29.3202 195.691 29.8962 195.519 30.5442 195.519C31.1922 195.519 31.7682 195.691 32.2722 196.035C32.7762 196.371 33.1722 196.859 33.4602 197.499C33.7562 198.131 33.9042 198.895 33.9042 199.791C33.9042 200.687 33.7562 201.455 33.4602 202.095C33.1722 202.727 32.7762 203.215 32.2722 203.559C31.7682 203.895 31.1922 204.063 30.5442 204.063ZM30.5442 203.271C31.0402 203.271 31.4722 203.139 31.8402 202.875C32.2082 202.603 32.4962 202.211 32.7042 201.699C32.9122 201.179 33.0162 200.543 33.0162 199.791C33.0162 199.039 32.9122 198.407 32.7042 197.895C32.4962 197.375 32.2082 196.983 31.8402 196.719C31.4722 196.447 31.0402 196.311 30.5442 196.311C30.0642 196.311 29.6362 196.447 29.2602 196.719C28.8842 196.983 28.5922 197.375 28.3842 197.895C28.1762 198.407 28.0722 199.039 28.0722 199.791C28.0722 200.543 28.1762 201.179 28.3842 201.699C28.5922 202.211 28.8842 202.603 29.2602 202.875C29.6362 203.139 30.0642 203.271 30.5442 203.271ZM38.4895 204.063C37.8415 204.063 37.2655 203.895 36.7615 203.559C36.2575 203.215 35.8615 202.727 35.5735 202.095C35.2855 201.455 35.1415 200.687 35.1415 199.791C35.1415 198.895 35.2855 198.131 35.5735 197.499C35.8615 196.859 36.2575 196.371 36.7615 196.035C37.2655 195.691 37.8415 195.519 38.4895 195.519C39.1375 195.519 39.7135 195.691 40.2175 196.035C40.7215 196.371 41.1175 196.859 41.4055 197.499C41.7015 198.131 41.8495 198.895 41.8495 199.791C41.8495 200.687 41.7015 201.455 41.4055 202.095C41.1175 202.727 40.7215 203.215 40.2175 203.559C39.7135 203.895 39.1375 204.063 38.4895 204.063ZM38.4895 203.271C38.9855 203.271 39.4175 203.139 39.7855 202.875C40.1535 202.603 40.4415 202.211 40.6495 201.699C40.8575 201.179 40.9615 200.543 40.9615 199.791C40.9615 199.039 40.8575 198.407 40.6495 197.895C40.4415 197.375 40.1535 196.983 39.7855 196.719C39.4175 196.447 38.9855 196.311 38.4895 196.311C38.0095 196.311 37.5815 196.447 37.2055 196.719C36.8295 196.983 36.5375 197.375 36.3295 197.895C36.1215 198.407 36.0175 199.039 36.0175 199.791C36.0175 200.543 36.1215 201.179 36.3295 201.699C36.5375 202.211 36.8295 202.603 37.2055 202.875C37.5815 203.139 38.0095 203.271 38.4895 203.271ZM46.4349 204.063C45.7869 204.063 45.2109 203.895 44.7069 203.559C44.2029 203.215 43.8069 202.727 43.5189 202.095C43.2309 201.455 43.0869 200.687 43.0869 199.791C43.0869 198.895 43.2309 198.131 43.5189 197.499C43.8069 196.859 44.2029 196.371 44.7069 196.035C45.2109 195.691 45.7869 195.519 46.4349 195.519C47.0829 195.519 47.6589 195.691 48.1629 196.035C48.6669 196.371 49.0629 196.859 49.3509 197.499C49.6469 198.131 49.7949 198.895 49.7949 199.791C49.7949 200.687 49.6469 201.455 49.3509 202.095C49.0629 202.727 48.6669 203.215 48.1629 203.559C47.6589 203.895 47.0829 204.063 46.4349 204.063ZM46.4349 203.271C46.9309 203.271 47.3629 203.139 47.7309 202.875C48.0989 202.603 48.3869 202.211 48.5949 201.699C48.8029 201.179 48.9069 200.543 48.9069 199.791C48.9069 199.039 48.8029 198.407 48.5949 197.895C48.3869 197.375 48.0989 196.983 47.7309 196.719C47.3629 196.447 46.9309 196.311 46.4349 196.311C45.9549 196.311 45.5269 196.447 45.1509 196.719C44.7749 196.983 44.4829 197.375 44.2749 197.895C44.0669 198.407 43.9629 199.039 43.9629 199.791C43.9629 200.543 44.0669 201.179 44.2749 201.699C44.4829 202.211 44.7749 202.603 45.1509 202.875C45.5269 203.139 45.9549 203.271 46.4349 203.271Z" fill="#0B132A" />
    <path d="M56.875 111.825H65" stroke="#0B132A" />
    <path d="M14.7276 104.591L18.3516 96.5751L18.6156 96.9591H13.4196L13.8636 96.5391V98.5311H13.0116V96.1911H19.1796V96.8031L15.6636 104.591H14.7276ZM22.7474 104.663C22.1474 104.663 21.5754 104.567 21.0314 104.375C20.4874 104.175 20.0554 103.911 19.7354 103.583L20.1554 102.899C20.4194 103.179 20.7794 103.411 21.2354 103.595C21.6994 103.779 22.1994 103.871 22.7354 103.871C23.4474 103.871 23.9874 103.715 24.3554 103.403C24.7314 103.083 24.9194 102.667 24.9194 102.155C24.9194 101.795 24.8314 101.487 24.6554 101.231C24.4874 100.967 24.1994 100.763 23.7914 100.619C23.3834 100.475 22.8234 100.403 22.1114 100.403H20.3234L20.7554 96.1911H25.3514V96.9591H21.1034L21.5474 96.5391L21.1754 100.067L20.7314 99.6351H22.3034C23.1514 99.6351 23.8314 99.7391 24.3434 99.9471C24.8554 100.155 25.2234 100.447 25.4474 100.823C25.6794 101.191 25.7954 101.623 25.7954 102.119C25.7954 102.591 25.6834 103.023 25.4594 103.415C25.2354 103.799 24.8994 104.103 24.4514 104.327C24.0034 104.551 23.4354 104.663 22.7474 104.663ZM30.2402 104.663C29.5922 104.663 29.0162 104.495 28.5122 104.159C28.0082 103.815 27.6122 103.327 27.3242 102.695C27.0362 102.055 26.8922 101.287 26.8922 100.391C26.8922 99.4951 27.0362 98.7311 27.3242 98.0991C27.6122 97.4591 28.0082 96.9711 28.5122 96.6351C29.0162 96.2911 29.5922 96.1191 30.2402 96.1191C30.8882 96.1191 31.4642 96.2911 31.9682 96.6351C32.4722 96.9711 32.8682 97.4591 33.1562 98.0991C33.4522 98.7311 33.6002 99.4951 33.6002 100.391C33.6002 101.287 33.4522 102.055 33.1562 102.695C32.8682 103.327 32.4722 103.815 31.9682 104.159C31.4642 104.495 30.8882 104.663 30.2402 104.663ZM30.2402 103.871C30.7362 103.871 31.1682 103.739 31.5362 103.475C31.9042 103.203 32.1922 102.811 32.4002 102.299C32.6082 101.779 32.7122 101.143 32.7122 100.391C32.7122 99.6391 32.6082 99.0071 32.4002 98.4951C32.1922 97.9751 31.9042 97.5831 31.5362 97.3191C31.1682 97.0471 30.7362 96.9111 30.2402 96.9111C29.7602 96.9111 29.3322 97.0471 28.9562 97.3191C28.5802 97.5831 28.2882 97.9751 28.0802 98.4951C27.8722 99.0071 27.7682 99.6391 27.7682 100.391C27.7682 101.143 27.8722 101.779 28.0802 102.299C28.2882 102.811 28.5802 103.203 28.9562 103.475C29.3322 103.739 29.7602 103.871 30.2402 103.871ZM38.1855 104.663C37.5375 104.663 36.9615 104.495 36.4575 104.159C35.9535 103.815 35.5575 103.327 35.2695 102.695C34.9815 102.055 34.8375 101.287 34.8375 100.391C34.8375 99.4951 34.9815 98.7311 35.2695 98.0991C35.5575 97.4591 35.9535 96.9711 36.4575 96.6351C36.9615 96.2911 37.5375 96.1191 38.1855 96.1191C38.8335 96.1191 39.4095 96.2911 39.9135 96.6351C40.4175 96.9711 40.8135 97.4591 41.1015 98.0991C41.3975 98.7311 41.5455 99.4951 41.5455 100.391C41.5455 101.287 41.3975 102.055 41.1015 102.695C40.8135 103.327 40.4175 103.815 39.9135 104.159C39.4095 104.495 38.8335 104.663 38.1855 104.663ZM38.1855 103.871C38.6815 103.871 39.1135 103.739 39.4815 103.475C39.8495 103.203 40.1375 102.811 40.3455 102.299C40.5535 101.779 40.6575 101.143 40.6575 100.391C40.6575 99.6391 40.5535 99.0071 40.3455 98.4951C40.1375 97.9751 39.8495 97.5831 39.4815 97.3191C39.1135 97.0471 38.6815 96.9111 38.1855 96.9111C37.7055 96.9111 37.2775 97.0471 36.9015 97.3191C36.5255 97.5831 36.2335 97.9751 36.0255 98.4951C35.8175 99.0071 35.7135 99.6391 35.7135 100.391C35.7135 101.143 35.8175 101.779 36.0255 102.299C36.2335 102.811 36.5255 103.203 36.9015 103.475C37.2775 103.739 37.7055 103.871 38.1855 103.871ZM46.1309 104.663C45.4829 104.663 44.9069 104.495 44.4029 104.159C43.8989 103.815 43.5029 103.327 43.2149 102.695C42.9269 102.055 42.7829 101.287 42.7829 100.391C42.7829 99.4951 42.9269 98.7311 43.2149 98.0991C43.5029 97.4591 43.8989 96.9711 44.4029 96.6351C44.9069 96.2911 45.4829 96.1191 46.1309 96.1191C46.7789 96.1191 47.3549 96.2911 47.8589 96.6351C48.3629 96.9711 48.7589 97.4591 49.0469 98.0991C49.3429 98.7311 49.4909 99.4951 49.4909 100.391C49.4909 101.287 49.3429 102.055 49.0469 102.695C48.7589 103.327 48.3629 103.815 47.8589 104.159C47.3549 104.495 46.7789 104.663 46.1309 104.663ZM46.1309 103.871C46.6269 103.871 47.0589 103.739 47.4269 103.475C47.7949 103.203 48.0829 102.811 48.2909 102.299C48.4989 101.779 48.6029 101.143 48.6029 100.391C48.6029 99.6391 48.4989 99.0071 48.2909 98.4951C48.0829 97.9751 47.7949 97.5831 47.4269 97.3191C47.0589 97.0471 46.6269 96.9111 46.1309 96.9111C45.6509 96.9111 45.2229 97.0471 44.8469 97.3191C44.4709 97.5831 44.1789 97.9751 43.9709 98.4951C43.7629 99.0071 43.6589 99.6391 43.6589 100.391C43.6589 101.143 43.7629 101.779 43.9709 102.299C44.1789 102.811 44.4709 103.203 44.8469 103.475C45.2229 103.739 45.6509 103.871 46.1309 103.871Z" fill="#0B132A" />
    <path d="M59 12.425H65" stroke="#0B132A" />
    <path d="M2.74425 16V7.96L3.12825 8.368H0.76425V7.6H3.60825V16H2.74425ZM8.96419 16.072C8.31619 16.072 7.74019 15.904 7.23619 15.568C6.73219 15.224 6.33619 14.736 6.04819 14.104C5.76019 13.464 5.61619 12.696 5.61619 11.8C5.61619 10.904 5.76019 10.14 6.04819 9.508C6.33619 8.868 6.73219 8.38 7.23619 8.044C7.74019 7.7 8.31619 7.528 8.96419 7.528C9.61219 7.528 10.1882 7.7 10.6922 8.044C11.1962 8.38 11.5922 8.868 11.8802 9.508C12.1762 10.14 12.3242 10.904 12.3242 11.8C12.3242 12.696 12.1762 13.464 11.8802 14.104C11.5922 14.736 11.1962 15.224 10.6922 15.568C10.1882 15.904 9.61219 16.072 8.96419 16.072ZM8.96419 15.28C9.46019 15.28 9.89219 15.148 10.2602 14.884C10.6282 14.612 10.9162 14.22 11.1242 13.708C11.3322 13.188 11.4362 12.552 11.4362 11.8C11.4362 11.048 11.3322 10.416 11.1242 9.904C10.9162 9.384 10.6282 8.992 10.2602 8.728C9.89219 8.456 9.46019 8.32 8.96419 8.32C8.48419 8.32 8.05619 8.456 7.68019 8.728C7.30419 8.992 7.01219 9.384 6.80419 9.904C6.59619 10.416 6.49219 11.048 6.49219 11.8C6.49219 12.552 6.59619 13.188 6.80419 13.708C7.01219 14.22 7.30419 14.612 7.68019 14.884C8.05619 15.148 8.48419 15.28 8.96419 15.28ZM16.9095 16.072C16.2615 16.072 15.6855 15.904 15.1815 15.568C14.6775 15.224 14.2815 14.736 13.9935 14.104C13.7055 13.464 13.5615 12.696 13.5615 11.8C13.5615 10.904 13.7055 10.14 13.9935 9.508C14.2815 8.868 14.6775 8.38 15.1815 8.044C15.6855 7.7 16.2615 7.528 16.9095 7.528C17.5575 7.528 18.1335 7.7 18.6375 8.044C19.1415 8.38 19.5375 8.868 19.8255 9.508C20.1215 10.14 20.2695 10.904 20.2695 11.8C20.2695 12.696 20.1215 13.464 19.8255 14.104C19.5375 14.736 19.1415 15.224 18.6375 15.568C18.1335 15.904 17.5575 16.072 16.9095 16.072ZM16.9095 15.28C17.4055 15.28 17.8375 15.148 18.2055 14.884C18.5735 14.612 18.8615 14.22 19.0695 13.708C19.2775 13.188 19.3815 12.552 19.3815 11.8C19.3815 11.048 19.2775 10.416 19.0695 9.904C18.8615 9.384 18.5735 8.992 18.2055 8.728C17.8375 8.456 17.4055 8.32 16.9095 8.32C16.4295 8.32 16.0015 8.456 15.6255 8.728C15.2495 8.992 14.9575 9.384 14.7495 9.904C14.5415 10.416 14.4375 11.048 14.4375 11.8C14.4375 12.552 14.5415 13.188 14.7495 13.708C14.9575 14.22 15.2495 14.612 15.6255 14.884C16.0015 15.148 16.4295 15.28 16.9095 15.28ZM22.0259 16.06C21.8499 16.06 21.6979 15.996 21.5699 15.868C21.4499 15.74 21.3899 15.584 21.3899 15.4C21.3899 15.208 21.4499 15.052 21.5699 14.932C21.6979 14.812 21.8499 14.752 22.0259 14.752C22.2019 14.752 22.3499 14.812 22.4699 14.932C22.5979 15.052 22.6619 15.208 22.6619 15.4C22.6619 15.584 22.5979 15.74 22.4699 15.868C22.3499 15.996 22.2019 16.06 22.0259 16.06ZM27.14 16.072C26.492 16.072 25.916 15.904 25.412 15.568C24.908 15.224 24.512 14.736 24.224 14.104C23.936 13.464 23.792 12.696 23.792 11.8C23.792 10.904 23.936 10.14 24.224 9.508C24.512 8.868 24.908 8.38 25.412 8.044C25.916 7.7 26.492 7.528 27.14 7.528C27.788 7.528 28.364 7.7 28.868 8.044C29.372 8.38 29.768 8.868 30.056 9.508C30.352 10.14 30.5 10.904 30.5 11.8C30.5 12.696 30.352 13.464 30.056 14.104C29.768 14.736 29.372 15.224 28.868 15.568C28.364 15.904 27.788 16.072 27.14 16.072ZM27.14 15.28C27.636 15.28 28.068 15.148 28.436 14.884C28.804 14.612 29.092 14.22 29.3 13.708C29.508 13.188 29.612 12.552 29.612 11.8C29.612 11.048 29.508 10.416 29.3 9.904C29.092 9.384 28.804 8.992 28.436 8.728C28.068 8.456 27.636 8.32 27.14 8.32C26.66 8.32 26.232 8.456 25.856 8.728C25.48 8.992 25.188 9.384 24.98 9.904C24.772 10.416 24.668 11.048 24.668 11.8C24.668 12.552 24.772 13.188 24.98 13.708C25.188 14.22 25.48 14.612 25.856 14.884C26.232 15.148 26.66 15.28 27.14 15.28ZM35.0853 16.072C34.4373 16.072 33.8613 15.904 33.3573 15.568C32.8533 15.224 32.4573 14.736 32.1693 14.104C31.8813 13.464 31.7373 12.696 31.7373 11.8C31.7373 10.904 31.8813 10.14 32.1693 9.508C32.4573 8.868 32.8533 8.38 33.3573 8.044C33.8613 7.7 34.4373 7.528 35.0853 7.528C35.7333 7.528 36.3093 7.7 36.8133 8.044C37.3173 8.38 37.7133 8.868 38.0013 9.508C38.2973 10.14 38.4453 10.904 38.4453 11.8C38.4453 12.696 38.2973 13.464 38.0013 14.104C37.7133 14.736 37.3173 15.224 36.8133 15.568C36.3093 15.904 35.7333 16.072 35.0853 16.072ZM35.0853 15.28C35.5813 15.28 36.0133 15.148 36.3813 14.884C36.7493 14.612 37.0373 14.22 37.2453 13.708C37.4533 13.188 37.5573 12.552 37.5573 11.8C37.5573 11.048 37.4533 10.416 37.2453 9.904C37.0373 9.384 36.7493 8.992 36.3813 8.728C36.0133 8.456 35.5813 8.32 35.0853 8.32C34.6053 8.32 34.1773 8.456 33.8013 8.728C33.4253 8.992 33.1333 9.384 32.9253 9.904C32.7173 10.416 32.6133 11.048 32.6133 11.8C32.6133 12.552 32.7173 13.188 32.9253 13.708C33.1333 14.22 33.4253 14.612 33.8013 14.884C34.1773 15.148 34.6053 15.28 35.0853 15.28ZM43.0306 16.072C42.3826 16.072 41.8066 15.904 41.3026 15.568C40.7986 15.224 40.4026 14.736 40.1146 14.104C39.8266 13.464 39.6826 12.696 39.6826 11.8C39.6826 10.904 39.8266 10.14 40.1146 9.508C40.4026 8.868 40.7986 8.38 41.3026 8.044C41.8066 7.7 42.3826 7.528 43.0306 7.528C43.6786 7.528 44.2546 7.7 44.7586 8.044C45.2626 8.38 45.6586 8.868 45.9466 9.508C46.2426 10.14 46.3906 10.904 46.3906 11.8C46.3906 12.696 46.2426 13.464 45.9466 14.104C45.6586 14.736 45.2626 15.224 44.7586 15.568C44.2546 15.904 43.6786 16.072 43.0306 16.072ZM43.0306 15.28C43.5266 15.28 43.9586 15.148 44.3266 14.884C44.6946 14.612 44.9826 14.22 45.1906 13.708C45.3986 13.188 45.5026 12.552 45.5026 11.8C45.5026 11.048 45.3986 10.416 45.1906 9.904C44.9826 9.384 44.6946 8.992 44.3266 8.728C43.9586 8.456 43.5266 8.32 43.0306 8.32C42.5506 8.32 42.1226 8.456 41.7466 8.728C41.3706 8.992 41.0786 9.384 40.8706 9.904C40.6626 10.416 40.5586 11.048 40.5586 11.8C40.5586 12.552 40.6626 13.188 40.8706 13.708C41.0786 14.22 41.3706 14.612 41.7466 14.884C42.1226 15.148 42.5506 15.28 43.0306 15.28ZM50.1697 14.344V9.256H50.9257V14.344H50.1697ZM47.9377 12.16V11.452H53.1577V12.16H47.9377Z" fill="#0B132A" />
    <path d="M65 410.025H663" stroke="#CCCCCC" />
    <path d="M65 310.625H663" stroke="#E8E8E8" />
    <path d="M65 211.225H663" stroke="#E8E8E8" />
    <path d="M65 111.825H663" stroke="#E8E8E8" />
    <path d="M65 12.425H663" stroke="#E8E8E8" />
    <path d="M73.543 353.947H141.543V410.025H73.543V353.947Z" fill="#2948FF" />
    <path d="M158.972 403.655H226.972V410.025H158.972V403.655Z" fill="#2948FF" />
    <path d="M244.4 36.7502H312.4V410.025H244.4V36.7502Z" fill="#2948FF" />
    <path d="M329.829 286.988H397.829V410.025H329.829V286.988Z" fill="#2948FF" />
    <path d="M415.257 237.021H483.257V410.025H415.257V237.021Z" fill="#2948FF" />
    <path d="M500.686 319.456H568.686V410.025H500.686V319.456Z" fill="#2948FF" />
    <path d="M586.114 350.81H654.114V410.025H586.114V350.81Z" fill="#2948FF" />
</svg>
