<svg width="135" height="95" viewBox="0 0 135 95" fill="none" xmlns="http://www.w3.org/2000/svg">
    <path d="M70.0636 38.5742C70.0636 39.864 68.9911 40.9192 67.6802 40.9192C66.3694 40.9192 65.2968 39.864 65.2968 38.5742C65.2968 37.2844 66.3098 36.2291 67.6802 36.2291C69.0507 36.2584 70.0636 37.3137 70.0636 38.5742ZM60.2917 43.2643C60.2917 43.4695 60.2917 43.8505 60.2917 43.8505C60.2917 43.8505 59.1596 42.4142 56.7464 42.4142C52.784 42.4142 49.6558 45.4041 49.6558 49.5079C49.6558 53.6118 52.7245 56.6017 56.7464 56.6017C59.1894 56.6017 60.2917 55.136 60.2917 55.136V55.7516C60.2917 56.0448 60.5003 56.2499 60.7982 56.2499H63.7476V42.7659C63.7476 42.7659 61.0365 42.7659 60.7982 42.7659C60.5003 42.7659 60.2917 43.0298 60.2917 43.2643ZM60.2917 51.9116C59.7555 52.7031 58.6531 53.3773 57.3423 53.3773C55.0185 53.3773 53.2309 51.9409 53.2309 49.5079C53.2309 47.075 55.0185 45.6386 57.3423 45.6386C58.6233 45.6386 59.7853 46.3421 60.2917 47.1043V51.9116ZM65.9523 42.7659H69.4678V56.2499H65.9523V42.7659ZM118.238 42.4142C115.825 42.4142 114.693 43.8505 114.693 43.8505V36.2878H111.177V56.2793C111.177 56.2793 113.888 56.2793 114.127 56.2793C114.424 56.2793 114.633 56.0154 114.633 55.7809V55.1654C114.633 55.1654 115.765 56.631 118.178 56.631C122.141 56.631 125.269 53.6118 125.269 49.5373C125.299 45.4334 122.171 42.4142 118.238 42.4142ZM117.672 53.348C116.331 53.348 115.259 52.6738 114.722 51.8823V47.075C115.259 46.3714 116.45 45.6093 117.672 45.6093C119.996 45.6093 121.783 47.0456 121.783 49.4786C121.783 51.9116 119.996 53.348 117.672 53.348ZM109.39 48.2475V56.2793H105.874V48.6579C105.874 46.4301 105.159 45.5214 103.163 45.5214C102.09 45.5214 101.018 46.049 100.333 46.8405V56.2499H96.8172V42.7659H99.5879C99.8858 42.7659 100.094 43.0298 100.094 43.2643V43.8505C101.107 42.7953 102.478 42.4142 103.818 42.4142C105.338 42.4142 106.619 42.8539 107.662 43.704C108.913 44.7006 109.39 45.9904 109.39 48.2475ZM88.3264 42.4142C85.9132 42.4142 84.7811 43.8505 84.7811 43.8505V36.2878H81.2656V56.2793C81.2656 56.2793 83.9767 56.2793 84.215 56.2793C84.5129 56.2793 84.7215 56.0154 84.7215 55.7809V55.1654C84.7215 55.1654 85.8536 56.631 88.2668 56.631C92.2292 56.631 95.3574 53.6118 95.3574 49.5373C95.4169 45.4334 92.3185 42.4142 88.3264 42.4142ZM87.7603 53.348C86.4196 53.348 85.3471 52.6738 84.8109 51.8823V47.075C85.3471 46.3714 86.5388 45.6093 87.7603 45.6093C90.0841 45.6093 91.8716 47.0456 91.8716 49.4786C91.8716 51.9116 90.0841 53.348 87.7603 53.348ZM78.2565 42.4142C79.3291 42.4142 79.8653 42.5901 79.8653 42.5901V45.7852C79.8653 45.7852 76.9457 44.8179 75.1283 46.8698V56.3086H71.6128V42.7659C71.6128 42.7659 74.3239 42.7659 74.5623 42.7659C74.8602 42.7659 75.0687 43.0298 75.0687 43.2643V43.8505C75.754 43.0884 77.184 42.4142 78.2565 42.4142ZM41.9098 55.0481C41.7311 54.6084 41.5523 54.1394 41.3736 53.7583C41.0756 53.1134 40.7777 52.4979 40.5394 51.9409L40.5096 51.9116C38.007 46.518 35.2959 41.0658 32.4358 35.7015L32.3167 35.4963C32.0187 34.9687 31.7208 34.3824 31.4527 33.7962C31.0952 33.1513 30.7377 32.4771 30.1418 31.8322C28.9799 30.3958 27.3115 29.6044 25.524 29.6044C23.7067 29.6044 22.0681 30.3958 20.8466 31.7442C20.3103 32.3891 19.8932 33.0633 19.5357 33.7082C19.2378 34.2945 18.9399 34.8514 18.6718 35.4084L18.5526 35.6136C15.7521 41.0072 13.0112 46.4594 10.4788 51.8237L10.4491 51.8823C10.1809 52.4686 9.91279 53.0548 9.61487 53.6997C9.43611 54.0808 9.25736 54.5205 9.07861 54.9895C8.60193 56.3086 8.45297 57.569 8.63172 58.8588C9.01902 61.5556 10.8661 63.8127 13.3687 64.8094C14.3221 65.1904 15.3052 65.3956 16.3182 65.3956C16.6161 65.3956 16.9736 65.3663 17.2715 65.337C18.4632 65.1904 19.7145 64.8094 20.9062 64.1058C22.3958 63.2851 23.8258 62.0832 25.4346 60.3831C27.0434 62.1126 28.5032 63.2851 29.9631 64.1058C31.1548 64.78 32.406 65.1904 33.5977 65.337C33.8957 65.3663 34.2532 65.3956 34.5511 65.3956C35.564 65.3956 36.6068 65.2197 37.5005 64.8094C40.0627 63.8127 41.8502 61.497 42.2375 58.8588C42.5355 57.6277 42.3865 56.3672 41.9098 55.0481ZM25.4644 56.8948C23.4981 54.4618 22.217 52.1461 21.7702 50.2115C21.5914 49.3907 21.5616 48.6579 21.651 48.013C21.7106 47.4267 21.9489 46.9284 22.2468 46.518C22.9321 45.5507 24.094 44.9351 25.4644 44.9351C26.8349 44.9351 28.0266 45.5214 28.682 46.518C28.9799 46.9577 29.1885 47.456 29.2778 48.013C29.397 48.6579 29.3374 49.42 29.1587 50.2115C28.7118 52.1461 27.4307 54.4325 25.4644 56.8948ZM40.0031 58.595C39.735 60.471 38.4837 62.0832 36.6961 62.7868C35.8322 63.1385 34.8788 63.2558 33.9255 63.1385C33.0019 63.0213 32.1081 62.7574 31.1548 62.2005C29.8439 61.497 28.533 60.3831 26.9838 58.7122C29.397 55.8102 30.8568 53.1428 31.3931 50.7684C31.6612 49.6545 31.691 48.6579 31.5719 47.7198C31.4229 46.8111 31.0952 45.9904 30.5887 45.2869C29.4566 43.6746 27.5499 42.7366 25.4346 42.7366C23.3194 42.7366 21.4127 43.704 20.2805 45.2869C19.7741 45.9904 19.4464 46.8405 19.2974 47.7198C19.1484 48.6579 19.1782 49.6838 19.4761 50.7684C20.0124 53.1428 21.5318 55.8396 23.8854 58.7416C22.3958 60.3831 21.0551 61.497 19.7145 62.2298C18.7611 62.7574 17.8674 63.0506 16.9438 63.1678C15.9606 63.2851 15.0073 63.1385 14.1731 62.8161C12.3856 62.1126 11.1045 60.471 10.8661 58.6243C10.747 57.7156 10.8364 56.8362 11.1939 55.8396C11.313 55.4878 11.4918 55.136 11.6705 54.6964C11.9387 54.1101 12.2068 53.5238 12.5047 52.9083L12.5345 52.8496C15.0371 47.5147 17.7482 42.0331 20.5487 36.7275L20.6678 36.5223C20.9658 35.9946 21.2637 35.4084 21.5318 34.8807C21.8297 34.2945 22.1575 33.7668 22.5448 33.2978C23.3194 32.4478 24.3323 31.9787 25.4644 31.9787C26.5965 31.9787 27.6095 32.4478 28.3841 33.2978C28.7714 33.7668 29.0991 34.2945 29.397 34.8807C29.6949 35.4084 29.9929 35.9946 30.261 36.5223L30.3802 36.7275C33.1509 42.0624 35.862 47.544 38.3645 52.8789V52.9083C38.6624 53.4945 38.9008 54.1394 39.1987 54.6964C39.3775 55.136 39.5562 55.4878 39.6754 55.8396C40.0329 56.7483 40.1521 57.657 40.0031 58.595Z" fill="#4F5665" />
</svg>
