<svg width="50" height="50" viewBox="0 0 50 50" fill="none" xmlns="http://www.w3.org/2000/svg">
    <path d="M34.5388 25.6175C34.5017 21.1918 38.1609 19.0408 38.3216 18.9419C36.2448 15.9254 33.0306 15.5051 31.9056 15.468C29.2106 15.1837 26.5898 17.0875 25.2176 17.0875C23.8206 17.0875 21.6943 15.5051 19.4196 15.5422C16.4898 15.5917 13.733 17.2853 12.2371 19.9308C9.13419 25.3085 11.4459 33.2203 14.4253 37.5719C15.9211 39.6982 17.6518 42.0841 19.9389 41.9976C22.1641 41.9111 23.0047 40.5759 25.6873 40.5759C28.3576 40.5759 29.1364 41.9976 31.4605 41.9481C33.8588 41.9111 35.3547 39.8095 36.8011 37.6584C38.5194 35.223 39.2117 32.8124 39.2364 32.6888C39.1746 32.664 34.5882 30.9086 34.5388 25.6175Z" fill="#4A4848" />
    <path d="M30.1505 12.6125C31.3497 11.1167 32.1656 9.07687 31.9431 7C30.2124 7.07417 28.0366 8.19915 26.788 9.67026C25.6878 10.9683 24.6988 13.0823 24.946 15.0726C26.8993 15.2209 28.902 14.0836 30.1505 12.6125Z" fill="#4A4848" />
</svg>
