<svg width="25" height="25" viewBox="0 0 25 25" fill="none" xmlns="http://www.w3.org/2000/svg">
    <path d="M16.778 12.7964C16.7602 10.6721 18.5166 9.63956 18.5938 9.59209C17.5969 8.14422 16.0541 7.94246 15.5141 7.92466C14.2205 7.78818 12.9625 8.70201 12.3038 8.70201C11.6333 8.70201 10.6127 7.94246 9.52082 7.96027C8.11448 7.984 6.79122 8.79695 6.07322 10.0668C4.5838 12.6481 5.69345 16.4458 7.12352 18.5345C7.84152 19.5551 8.67227 20.7004 9.77005 20.6588C10.8382 20.6173 11.2417 19.9764 12.5293 19.9764C13.811 19.9764 14.1849 20.6588 15.3005 20.6351C16.4516 20.6173 17.1696 19.6085 17.8639 18.576C18.6887 17.4071 19.021 16.2499 19.0329 16.1906C19.0032 16.1787 16.8017 15.3361 16.778 12.7964Z" fill="white" />
    <path d="M14.6718 6.554C15.2474 5.83599 15.6391 4.8569 15.5323 3.86C14.7015 3.8956 13.6571 4.43559 13.0578 5.14173C12.5297 5.76479 12.055 6.77949 12.1737 7.73485C13.1112 7.80605 14.0725 7.26013 14.6718 6.554Z" fill="white" />
</svg>
