<svg width="136" height="95" viewBox="0 0 136 95" fill="none" xmlns="http://www.w3.org/2000/svg">
    <path d="M31.5924 57.0438C26.5264 57.0438 22.4207 52.936 22.4207 47.869C22.4207 42.8018 26.5264 38.6979 31.5924 38.6979C33.378 38.6979 35.0451 39.2071 36.4535 40.0898L31.5924 47.869L40.7438 42.5849C39.7495 41.0008 38.3235 39.6357 36.5992 38.5999C34.405 37.2863 31.3527 36.4733 27.9776 36.4733C23.1632 36.4733 18.9394 38.2228 16.5839 40.8428C14.84 42.7796 13.8018 45.2172 13.8018 47.8689C13.8018 50.5225 14.84 52.9619 16.5839 54.9C18.9456 57.5233 23.1064 59.2626 27.8414 59.2626C32.5758 59.2626 36.7354 57.5219 39.0985 54.9C39.2279 54.7556 39.3532 54.6099 39.4717 54.4587L39.1148 53.1212C37.4545 55.4911 34.7046 57.0438 31.5924 57.0438Z" fill="#4F5665" />
    <path d="M61.9324 58.7107L58.0915 44.3823C57.4745 42.0669 55.3661 40.3651 52.8559 40.3651C52.2049 40.3651 51.5811 40.4814 51.0022 40.6919L42.7334 43.6987H51.2378L52.6911 49.1261C51.2814 47.9128 49.4454 47.1746 47.4351 47.1746C43.443 47.1746 40.2109 49.8497 40.2109 53.1496C40.2109 56.4498 43.443 59.1289 47.4351 59.1289C50.3089 59.1289 52.8505 57.7219 54.4181 55.5604L55.2612 58.7107H61.9324ZM50.2163 56.4852C48.3749 56.4852 46.8821 54.9938 46.8821 53.1496C46.8821 51.3082 48.3749 49.8154 50.2163 49.8154C52.0578 49.8154 53.5519 51.3082 53.5519 53.1496C53.5519 54.9938 52.0578 56.4852 50.2163 56.4852Z" fill="#4F5665" />
    <path d="M77.5931 40.3676C77.0891 40.3676 76.6124 40.479 76.1875 40.6785L70.8783 43.1528C70.6155 41.5723 69.2426 40.3676 67.5864 40.3676C67.0851 40.3676 66.6071 40.479 66.1767 40.6785L59.6948 43.6988H64.2521V58.7109H70.9233V45.3689C70.9233 44.4483 71.6683 43.6989 72.5918 43.6989C73.5098 43.6989 74.2602 44.4483 74.2602 45.3689V58.7109H80.9287V43.6988C80.9287 41.8578 79.4345 40.3677 77.5931 40.3677" fill="#4F5665" />
    <path d="M119.429 40.3676C118.924 40.3676 118.444 40.479 118.012 40.6785L112.709 43.1528C112.447 41.5723 111.074 40.3676 109.418 40.3676C108.917 40.3676 108.439 40.479 108.007 40.6785L101.528 43.6988H106.084V58.7109H112.754V45.3689C112.754 44.4483 113.5 43.6989 114.423 43.6989C115.344 43.6989 116.089 44.4483 116.089 45.3689V58.7109H122.763V43.6988C122.763 41.8578 121.268 40.3677 119.429 40.3677" fill="#4F5665" />
    <path d="M102.606 49.8153C102.606 55.0334 98.3774 59.2624 93.1609 59.2624C87.9403 59.2624 83.7085 55.0334 83.7085 49.8153C83.7085 44.5987 87.9403 40.3676 93.1609 40.3676C98.3774 40.3676 102.606 44.5988 102.606 49.8153ZM93.5518 43.2349C93.2549 42.1232 92.1121 41.4633 91.0007 41.7621C89.8907 42.0597 89.2274 43.2032 89.5257 44.3147L92.7659 56.3954C93.0656 57.5081 94.2056 58.1674 95.317 57.8732C96.4284 57.5722 97.0889 56.4294 96.7907 55.318L93.5518 43.2349Z" fill="#4F5665" />
</svg>
