<svg width="24" height="24" viewBox="0 0 24 24" fill="none" xmlns="http://www.w3.org/2000/svg">
    <circle cx="12" cy="12" r="12" fill="#00A700" />
    <g clip-path="url(#clip0_27_88)">
        <path fill-rule="evenodd" clip-rule="evenodd" d="M12.0001 18.6207C15.6566 18.6207 18.6208 15.6565 18.6208 12C18.6208 8.34345 15.6566 5.37927 12.0001 5.37927C8.34358 5.37927 5.37939 8.34345 5.37939 12C5.37939 15.6565 8.34358 18.6207 12.0001 18.6207ZM15.1286 10.5768C15.371 10.3344 15.371 9.94139 15.1286 9.699C14.8862 9.45661 14.4933 9.45661 14.2509 9.699L10.9656 12.9842L9.74932 11.768C9.50693 11.5256 9.11393 11.5256 8.87154 11.768C8.62914 12.0104 8.62914 12.4034 8.87154 12.6458L10.5267 14.3009C10.7691 14.5433 11.1621 14.5433 11.4045 14.3009L15.1286 10.5768Z" fill="white" />
    </g>
    <defs>
        <clipPath id="clip0_27_88">
            <rect width="13.2414" height="13.2414" fill="white" transform="translate(5.37939 5.37927)" />
        </clipPath>
    </defs>
</svg>
