<svg width="135" height="95" viewBox="0 0 135 95" fill="none" xmlns="http://www.w3.org/2000/svg">
    <path d="M65.9517 13.4912H68.0677C78.3602 14.0713 85.6988 17.9774 91.1395 23.4516C96.5803 28.9259 100.602 36.1459 101.14 46.4764V48.523C100.617 59.0186 96.5241 65.9457 91.1395 71.5818C85.4831 76.9355 78.5296 80.9917 68.0336 81.5078H65.9517C55.6605 80.9266 48.3205 77.0221 42.8799 71.5476C37.4392 66.0733 33.4173 58.8534 32.8799 48.523V46.4764C32.9067 46.4689 32.9198 46.4478 32.914 46.4081C33.4286 36.1171 37.4725 28.822 42.88 23.4175C48.3124 17.9879 55.7271 14.0538 65.9517 13.4912ZM59.2622 18.3691C57.2343 18.9118 55.4157 19.601 53.7674 20.4157C48.7501 22.8952 44.6125 26.4428 41.7195 30.99C38.8958 35.4285 36.4509 41.1382 36.8049 48.6252C37.0282 53.3454 38.1058 57.3159 39.8082 60.7004C43.1701 67.3832 48.2883 72.3072 55.3716 75.3C58.8743 76.7799 63.2145 77.8179 68.102 77.5853C72.7901 77.3621 76.8524 76.3089 80.2182 74.6177C86.8145 71.3028 92.0129 66.1883 94.8942 59.1314C96.3513 55.5617 97.4533 51.4378 97.215 46.4421C96.7641 36.9787 92.9125 30.562 87.8294 25.6687C85.3143 23.2475 82.2858 21.188 78.7168 19.6994C75.254 18.2551 70.746 17.1842 65.918 17.414C63.5444 17.5269 61.3054 17.8222 59.2622 18.3691Z" fill="#4F5665" />
    <path d="M63.8699 38.6649C64.9512 39.3806 66.0573 40.0717 67.0782 40.848C64.772 42.2952 62.5112 43.7879 60.2181 45.2483C60.5663 45.5143 60.9622 45.7326 61.3102 45.9987C63.6224 44.5346 65.9353 43.0715 68.2387 41.5984C69.2717 42.2374 70.2888 42.8924 71.2422 43.611C68.9341 45.0679 66.7035 46.602 64.4162 48.0794C64.7551 48.3548 65.1705 48.5535 65.5422 48.7958C67.9064 47.3496 70.2116 45.8445 72.5388 44.3615V39.5177H77.6584V49.1711C79.1031 49.2505 80.6961 49.1824 82.1979 49.2049V53.7419H72.5388V49.1367C69.701 50.8599 66.7928 52.8085 63.9382 54.6286C60.9654 52.6994 58.1003 50.6619 55.1327 48.7275C54.273 51.451 52.2311 53.4998 48.8526 53.7419C46.7456 53.8925 44.3513 53.6293 41.9243 53.7419V39.5177C44.9585 39.7186 48.2902 39.1122 50.6957 39.8587C52.8226 40.519 54.3305 42.2151 55.0301 44.3273C58 42.4631 60.9221 40.5515 63.8699 38.6649ZM46.8047 44.0886V49.2051C48.0243 49.2111 48.9518 49.2819 49.6716 48.7277C50.7425 47.9033 50.9582 45.8597 50.0128 44.7707C49.382 44.0441 48.3168 43.8916 46.8387 43.9862C46.7993 43.9919 46.8018 44.0402 46.8047 44.0886ZM83.5286 39.5177H88.648V49.2051H93.1532V53.742H83.4942V39.62C83.4915 39.5717 83.4887 39.5234 83.5286 39.5177Z" fill="#4F5665" />
</svg>
