<svg width="136" height="95" viewBox="0 0 136 95" fill="none" xmlns="http://www.w3.org/2000/svg">
    <path d="M68.4579 22.2616L59.4064 28.1103L68.4579 33.959L59.4064 39.8077L50.355 33.9103L59.4064 28.0616L50.355 22.2616L59.4064 16.4129L68.4579 22.2616ZM59.3583 41.6598L68.4097 35.8111L77.4612 41.6598L68.4097 47.5085L59.3583 41.6598ZM68.4579 33.9103L77.5093 28.0616L68.4579 22.2616L77.4612 16.4129L86.5126 22.2616L77.4612 28.1103L86.5126 33.959L77.4612 39.8077L68.4579 33.9103Z" fill="#4F5665" />
    <path d="M17.1079 56.6273H23.7244C27.9468 56.6273 31.4292 59.065 31.4292 64.6368V65.8121C31.4292 71.4274 28.1645 73.9521 23.855 73.9521H17.1079V56.6273ZM20.8079 59.7615V70.7745H23.6374C26.0315 70.7745 27.6421 69.2074 27.6421 65.725V64.8109C27.6421 61.3285 25.9444 59.7615 23.5068 59.7615H20.8079ZM33.388 59.9356H36.348L36.8269 63.2003C37.3928 60.9803 38.8292 59.805 41.441 59.805H42.3551V63.5485H40.8316C37.8281 63.5485 37.088 64.5933 37.088 67.5533V73.9957H33.4316V59.9356H33.388ZM43.0951 67.2486V66.8568C43.0951 62.1556 46.0987 59.5873 50.1905 59.5873C54.3693 59.5873 57.2858 62.1556 57.2858 66.8568V67.2486C57.2858 71.8627 54.4564 74.3439 50.1905 74.3439C45.6634 74.3004 43.0951 71.8627 43.0951 67.2486ZM53.5423 67.205V66.8568C53.5423 64.245 52.2364 62.678 50.147 62.678C48.1011 62.678 46.7516 64.1144 46.7516 66.8568V67.205C46.7516 69.7298 48.0575 71.1662 50.147 71.1662C52.2364 71.1227 53.5423 69.7298 53.5423 67.205ZM59.2011 59.9356H62.2482L62.5965 62.5909C63.3365 60.8062 64.9035 59.5873 67.2106 59.5873C70.78 59.5873 73.1306 62.1556 73.1306 66.9003V67.2921C73.1306 71.9063 70.5189 74.3439 67.2106 74.3439C64.9906 74.3439 63.4671 73.3427 62.727 71.7321V78.8275H59.1576L59.2011 59.9356ZM69.4306 67.205V66.9003C69.4306 64.1144 67.9941 62.7215 66.0788 62.7215C64.0329 62.7215 62.6835 64.2886 62.6835 66.9003V67.1615C62.6835 69.6427 63.9894 71.2098 66.0353 71.2098C68.1247 71.1662 69.4306 69.8168 69.4306 67.205ZM78.5283 71.3839L78.2236 73.9521H75.0895V55.2344H78.6589V62.4168C79.4425 60.5885 81.0095 59.5873 83.2295 59.5873C86.5813 59.6309 89.0625 61.938 89.0625 66.5956V67.0309C89.0625 71.6886 86.7119 74.3439 83.1425 74.3439C80.7919 74.3004 79.2683 73.2121 78.5283 71.3839ZM85.319 67.0309V66.6827C85.319 64.1144 83.926 62.678 81.9672 62.678C79.9648 62.678 78.5719 64.2886 78.5719 66.7262V67.0309C78.5719 69.6427 79.9213 71.1662 81.9236 71.1662C84.0566 71.1662 85.319 69.8168 85.319 67.0309ZM90.6296 67.2486V66.8568C90.6296 62.1556 93.6331 59.5873 97.7249 59.5873C101.904 59.5873 104.82 62.1556 104.82 66.8568V67.2486C104.82 71.8627 101.947 74.3439 97.7249 74.3439C93.1978 74.3004 90.6296 71.8627 90.6296 67.2486ZM101.12 67.205V66.8568C101.12 64.245 99.8144 62.678 97.7249 62.678C95.679 62.678 94.3296 64.1144 94.3296 66.8568V67.205C94.3296 69.7298 95.6355 71.1662 97.7249 71.1662C99.8144 71.1227 101.12 69.7298 101.12 67.205ZM109.609 66.6827L104.69 59.9356H108.912L111.742 64.158L114.614 59.9356H118.793L113.787 66.6392L119.054 73.9521H114.919L111.698 69.2945L108.564 73.9521H104.254L109.609 66.6827Z" fill="#4F5665" />
</svg>
