<svg width="50" height="50" viewBox="0 0 50 50" fill="none" xmlns="http://www.w3.org/2000/svg">
    <path d="M9.55531 7.48975C9.13883 7.90624 9 8.60038 9 9.43336V40.1145C9 40.9475 9.27766 41.6416 9.69414 42.0581L9.83297 42.1969L27.0477 24.9822V24.7045L9.55531 7.48975Z" fill="url(#paint0_linear_9_387)" />
    <path d="M32.6007 30.813L26.9087 25.121V24.7045L32.6007 19.0125L32.7395 19.1513L39.5421 23.0386C41.4857 24.1492 41.4857 25.954 39.5421 27.0646L32.6007 30.813Z" fill="url(#paint1_linear_9_387)" />
    <path d="M32.7396 30.6741L26.9088 24.8433L9.55518 42.1969C10.2493 42.891 11.2211 42.891 12.4706 42.3357L32.7396 30.6741Z" fill="url(#paint2_linear_9_387)" />
    <path d="M32.7396 19.0126L12.4706 7.48986C11.2211 6.79571 10.2493 6.93454 9.55518 7.62869L26.9088 24.8434L32.7396 19.0126Z" fill="url(#paint3_linear_9_387)" />
    <path opacity="0.2" d="M32.6007 30.5353L12.4706 41.9192C11.3599 42.6134 10.3881 42.4745 9.69401 41.9192L9.55518 42.0581L9.69401 42.1969C10.3881 42.7522 11.3599 42.891 12.4706 42.1969L32.6007 30.5353Z" fill="black" />
    <path opacity="0.2" d="M9.55531 41.9192C9.13883 41.5028 9 40.8086 9 39.9756V40.1145C9 40.9474 9.27766 41.6416 9.69414 42.0581V41.9192H9.55531ZM39.5423 26.6481L32.6009 30.5353L32.7397 30.6741L39.5423 26.7869C40.5141 26.2316 40.9306 25.5375 40.9306 24.8433C40.9306 25.5375 40.3753 26.0928 39.5423 26.6481Z" fill="black" />
    <path opacity="0.2" d="M12.4707 7.62863L39.5423 23.0386C40.3753 23.5939 40.9306 24.1492 40.9306 24.8434C40.9306 24.1492 40.5141 23.4551 39.5423 22.8998L12.4707 7.4898C10.5271 6.37917 9 7.21214 9 9.4334V9.57223C9 7.4898 10.5271 6.518 12.4707 7.62863Z" fill="white" />
    <defs>
        <linearGradient id="paint0_linear_9_387" x1="25.3818" y1="9.16958" x2="2.08216" y2="32.4678" gradientUnits="userSpaceOnUse">
            <stop stop-color="#00A0FF" />
            <stop offset="0.007" stop-color="#00A1FF" />
            <stop offset="0.26" stop-color="#00BEFF" />
            <stop offset="0.512" stop-color="#00D2FF" />
            <stop offset="0.76" stop-color="#00DFFF" />
            <stop offset="1" stop-color="#00E3FF" />
        </linearGradient>
        <linearGradient id="paint1_linear_9_387" x1="42.0882" y1="24.8447" x2="8.49584" y2="24.8447" gradientUnits="userSpaceOnUse">
            <stop stop-color="#FFE000" />
            <stop offset="0.409" stop-color="#FFBD00" />
            <stop offset="0.775" stop-color="#FFA500" />
            <stop offset="1" stop-color="#FF9C00" />
        </linearGradient>
        <linearGradient id="paint2_linear_9_387" x1="29.584" y1="28.0308" x2="-2.01064" y2="59.6255" gradientUnits="userSpaceOnUse">
            <stop stop-color="#FF3A44" />
            <stop offset="1" stop-color="#C31162" />
        </linearGradient>
        <linearGradient id="paint3_linear_9_387" x1="5.24732" y1="-2.67796" x2="19.3565" y2="11.4312" gradientUnits="userSpaceOnUse">
            <stop stop-color="#32A071" />
            <stop offset="0.069" stop-color="#2DA771" />
            <stop offset="0.476" stop-color="#15CF74" />
            <stop offset="0.801" stop-color="#06E775" />
            <stop offset="1" stop-color="#00F076" />
        </linearGradient>
    </defs>
</svg>
