<svg width="135" height="95" viewBox="0 0 135 95" fill="none" xmlns="http://www.w3.org/2000/svg">
    <path d="M83.2468 22.634C86.1481 21.209 87.5859 21.396 87.6183 22.8404C87.657 24.7167 87.3797 27.2118 87.1797 29.0171C86.1029 38.8297 84.304 46.8479 84.1687 56.9229C88.9076 44.6545 92.8793 36.1276 97.9987 25.6257C99.6236 22.2794 100.662 22.9048 101.996 22.3116C107.193 19.997 107.387 21.4154 106.709 24.2459C104.188 34.7298 97.7343 67.7387 96.748 72.8214C96.4642 74.292 94.8653 73.6686 94.4525 73.0935C92.6022 70.5338 90.5132 70.4938 90.7452 68.7917C91.9058 60.3175 96.0837 39.0561 97.1735 34.0462C91.622 45.4275 85.8644 59.6554 82.9049 67.7227C82.2794 69.4357 81.1382 69.3101 80.4291 68.0566C79.4296 66.2959 77.4889 65.397 77.1665 63.3163C76.1543 56.7012 78.3271 44.0922 78.63 36.1153C75.6063 44.8292 70.532 61.747 68.3075 69.3905C67.392 72.5532 64.3358 72.0373 65.1481 68.9548C68.5266 56.1273 75.8061 33.4402 78.9525 25.284C79.6943 23.3625 81.6348 23.4269 83.2468 22.634Z" fill="#4F5665" />
    <path d="M64.8196 21.0608C63.8396 20.8223 60.9962 22.3568 59.2488 22.6598C58.6944 22.7565 58.1656 23.3432 57.9786 23.7624C55.1803 30.1906 52.6723 36.3184 50.4994 41.9007C47.7205 42.3752 44.471 43 40.8345 43.8169C43.4393 37.1353 46.07 30.5451 48.6361 24.2072C49.8998 21.0865 46.5729 20.7899 45.2833 23.9493C43.6069 28.0565 40.4669 35.7517 36.9916 44.7209C34.4384 45.3469 31.7305 46.0625 28.8999 46.8802C26.8431 47.474 26.7593 48.022 27.6491 49.2555C28.1391 49.9423 29.1514 49.8731 29.6156 50.3625C30.8149 51.6308 31.5435 53.1478 33.6904 53.3774C31.7754 58.5 29.8605 63.7826 28.1261 68.869C27.0365 72.0618 30.1378 72.7149 31.3306 69.3363C33.252 63.8901 35.2766 58.378 37.3591 52.8821C39.0935 52.4791 43.2909 51.5751 47.1658 50.7343C44.0904 59.1639 42.0657 65.5657 41.2986 68.6819C41.1568 69.2814 41.3953 69.6142 41.5242 69.8586C42.5622 71.3692 43.5487 71.4311 44.8834 73.2989C45.2446 73.8083 46.4567 74.083 46.8693 72.8289C49.7191 64.2207 52.6528 56.1438 55.3865 48.9031C56.5212 48.6549 58.5651 48.1617 59.8159 46.2951C62.0403 42.9822 62.6786 43.6541 63.2139 42.647C63.8845 41.3826 63.4395 40.1956 61.0669 40.4889C61.0669 40.4889 60.1706 40.5527 58.5136 40.7416C61.1442 33.9685 63.446 28.2236 65.103 23.8458C65.6707 22.3632 65.7416 21.28 64.8196 21.0608Z" fill="#4F5665" />
    <path d="M60.9381 64.9911C61.5506 66.5392 63.4655 66.0704 62.7369 64.202C61.9954 62.2985 60.1514 56.5686 59.6677 54.7226C59.0102 52.2352 61.8599 52.9154 60.4157 54.5416C59.1778 55.9399 58.3524 56.5003 56.0636 59.1592C53.8521 61.726 54.4517 65.0569 56.818 65.7926C59.4873 66.623 61.8407 63.6817 63.2978 61.5237C64.7098 59.4341 63.3429 58.2084 61.918 59.4438C61.0024 60.2381 59.945 61.4579 58.8747 62.1156C58.0043 62.6449 57.3208 62.0763 58.4814 60.4786C59.8289 58.6288 61.3377 57.0788 62.4595 55.3308C64.7485 51.7685 60.2222 49.715 58.275 52.029C57.2305 53.2625 57.4949 54.4734 57.7786 55.5126C58.2364 57.1773 59.9386 62.4915 60.9381 64.9911Z" fill="#4F5665" />
</svg>
