<svg width="135" height="95" viewBox="0 0 135 95" fill="none" xmlns="http://www.w3.org/2000/svg">
    <path d="M118.67 65.7902V63.3094H115.589V59.4525L115.485 59.4844L112.592 60.3697L112.535 60.3871V63.3094H107.968V61.6816C107.968 60.9235 108.137 60.3434 108.471 59.9566C108.803 59.5743 109.277 59.38 109.882 59.38C110.318 59.38 110.768 59.4825 111.221 59.6847L111.335 59.7353V57.1226L111.282 57.103C110.859 56.951 110.283 56.8744 109.571 56.8744C108.672 56.8744 107.855 57.0699 107.143 57.4574C106.431 57.8455 105.87 58.3995 105.478 59.104C105.087 59.8076 104.888 60.6203 104.888 61.5195V63.3094H102.743V65.7902H104.888V76.2416H107.968V65.7902H112.535V72.4319C112.535 75.1673 113.825 76.5536 116.369 76.5536C116.788 76.5536 117.228 76.5044 117.677 76.4084C118.134 76.31 118.446 76.2116 118.629 76.1065L118.67 76.0826V73.5787L118.545 73.6616C118.378 73.7732 118.169 73.8641 117.925 73.9316C117.68 74.0006 117.475 74.0352 117.317 74.0352C116.721 74.0352 116.28 73.8745 116.006 73.5576C115.729 73.2377 115.589 72.6783 115.589 71.8958V65.7902H118.67ZM95.8657 74.0354C94.7479 74.0354 93.8667 73.6648 93.2457 72.9347C92.6208 72.2009 92.3043 71.1547 92.3043 69.8256C92.3043 68.4544 92.6208 67.3811 93.246 66.6343C93.8674 65.8925 94.7403 65.516 95.8406 65.516C96.9084 65.516 97.7584 65.8756 98.3672 66.5854C98.9792 67.2987 99.2897 68.3634 99.2897 69.7507C99.2897 71.1551 98.9977 72.2338 98.4218 72.9553C97.85 73.6716 96.9901 74.0354 95.8657 74.0354ZM96.0029 62.9978C93.8703 62.9978 92.1765 63.6226 90.969 64.855C89.7622 66.0876 89.1501 67.7932 89.1501 69.9251C89.1501 71.9498 89.7475 73.5784 90.9257 74.765C92.1038 75.952 93.7072 76.5533 95.6909 76.5533C97.7581 76.5533 99.4181 75.9198 100.625 74.6703C101.832 73.422 102.444 71.7327 102.444 69.6506C102.444 67.5941 101.87 65.9534 100.738 64.7747C99.6049 63.5955 98.0116 62.9978 96.0029 62.9978ZM84.1849 62.9977C82.7344 62.9977 81.5345 63.3687 80.6179 64.1003C79.6957 64.8362 79.228 65.8015 79.228 66.9694C79.228 67.5765 79.329 68.1159 79.5277 68.5732C79.7276 69.0322 80.0371 69.4361 80.448 69.7752C80.856 70.1116 81.4854 70.464 82.3199 70.8224C83.0211 71.111 83.5443 71.3553 83.8765 71.5477C84.2013 71.7362 84.4319 71.9258 84.5621 72.1104C84.6885 72.291 84.7528 72.5382 84.7528 72.8435C84.7528 73.7123 84.1022 74.135 82.7634 74.135C82.2668 74.135 81.7003 74.0314 81.0798 73.8269C80.4589 73.6227 79.8788 73.3292 79.3558 72.9527L79.228 72.8611V75.8259L79.2749 75.8477C79.7107 76.0488 80.26 76.2184 80.9075 76.3519C81.5538 76.4855 82.1409 76.5536 82.6511 76.5536C84.2252 76.5536 85.4928 76.1807 86.4176 75.4448C87.3484 74.7038 87.8203 73.7159 87.8203 72.5073C87.8203 71.6357 87.5663 70.8881 87.0656 70.2852C86.5686 69.6872 85.7058 69.1383 84.5022 68.653C83.5434 68.2682 82.9292 67.9487 82.6759 67.7036C82.4316 67.4667 82.3076 67.1316 82.3076 66.7074C82.3076 66.3313 82.4606 66.0301 82.775 65.786C83.0917 65.5407 83.5325 65.416 84.0855 65.416C84.5986 65.416 85.1236 65.497 85.6456 65.6558C86.1674 65.8146 86.6255 66.0273 87.0081 66.2876L87.1339 66.3736V63.5612L87.0856 63.5403C86.7327 63.389 86.2673 63.2596 85.7022 63.1545C85.1393 63.0505 84.6288 62.9977 84.1849 62.9977ZM71.1997 74.0354C70.0823 74.0354 69.2007 73.6648 68.5798 72.9347C67.9548 72.2009 67.6388 71.1551 67.6388 69.8256C67.6388 68.4544 67.9552 67.3811 68.5805 66.6343C69.2014 65.8925 70.0741 65.516 71.175 65.516C72.2424 65.516 73.0924 65.8756 73.7014 66.5854C74.3134 67.2987 74.6238 68.3634 74.6238 69.7507C74.6238 71.1551 74.3316 72.2338 73.7558 72.9553C73.184 73.6716 72.3245 74.0354 71.1997 74.0354ZM71.3372 62.9978C69.2041 62.9978 67.5103 63.6226 66.3033 64.855C65.0965 66.0876 64.4841 67.7932 64.4841 69.9251C64.4841 71.9506 65.0818 73.5784 66.26 74.765C67.4382 75.952 69.0414 76.5533 71.0252 76.5533C73.0919 76.5533 74.7524 75.9198 75.9596 74.6703C77.1663 73.422 77.7781 71.7327 77.7781 69.6506C77.7781 67.5941 77.2041 65.9534 76.0717 64.7747C74.9386 63.5955 73.3455 62.9978 71.3372 62.9978ZM59.8094 65.5489V63.3094H56.7674V76.2412H59.8094V69.6261C59.8094 68.5012 60.0645 67.5772 60.5677 66.8792C61.0645 66.1896 61.7267 65.84 62.5351 65.84C62.809 65.84 63.1166 65.8853 63.4497 65.9746C63.7794 66.0635 64.0182 66.1599 64.1591 66.2614L64.2869 66.354V63.2872L64.2376 63.2661C63.9543 63.1456 63.5536 63.0849 63.0465 63.0849C62.2821 63.0849 61.5979 63.3305 61.012 63.8141C60.4977 64.2392 60.1259 64.8221 59.8417 65.5489H59.8094ZM51.3198 62.9977C49.9243 62.9977 48.6795 63.2971 47.6205 63.887C46.5596 64.4782 45.7391 65.3223 45.1808 66.3958C44.6251 67.4667 44.3429 68.7175 44.3429 70.1123C44.3429 71.3341 44.6165 72.4555 45.1573 73.4436C45.6983 74.4335 46.4642 75.2079 47.4336 75.745C48.4016 76.2815 49.5204 76.5536 50.7591 76.5536C52.2048 76.5536 53.439 76.2644 54.4287 75.6945L54.4686 75.6715V72.8847L54.3409 72.978C53.8926 73.3044 53.3916 73.5651 52.8526 73.7529C52.3149 73.9405 51.8247 74.0354 51.395 74.0354C50.2013 74.0354 49.2432 73.6618 48.5476 72.9256C47.8505 72.1882 47.497 71.153 47.497 69.8501C47.497 68.5391 47.8657 67.4772 48.5921 66.6936C49.3162 65.9124 50.2762 65.5161 51.4452 65.5161C52.4451 65.5161 53.4194 65.8547 54.3412 66.5234L54.4686 66.616V63.6795L54.4275 63.6563C54.0806 63.4622 53.6076 63.3019 53.0201 63.1803C52.4354 63.059 51.8634 62.9977 51.3198 62.9977ZM42.2478 63.3094H39.2058V76.2413H42.2478V63.3094ZM40.7578 57.8003C40.2572 57.8003 39.8205 57.9707 39.4618 58.3085C39.1015 58.6472 38.9187 59.0737 38.9187 59.5769C38.9187 60.0722 39.0993 60.4908 39.456 60.8206C39.8105 61.1493 40.2485 61.3159 40.7578 61.3159C41.267 61.3159 41.7067 61.1493 42.0655 60.8211C42.4266 60.4908 42.6096 60.0722 42.6096 59.5769C42.6096 59.0913 42.4315 58.6691 42.0803 58.3221C41.7296 57.9759 41.2846 57.8003 40.7578 57.8003ZM33.1679 62.3553V76.2412H36.2724V58.1963H31.9758L26.5143 71.5995L21.2143 58.1963H16.7427V76.2412H19.66V62.354H19.7603L25.3569 76.2412H27.5585L33.0678 62.3553H33.1679Z" fill="#4F5665" />
    <path d="M64.9504 32.0514H50.6401V17.7411H64.9504V32.0514Z" fill="#4F5665" />
    <path d="M80.7505 32.0514H66.4404V17.7411H80.7505V32.0514Z" fill="#4F5665" />
    <path d="M64.9501 47.8574H50.6401V33.5471H64.9501V47.8574Z" fill="#4F5665" />
    <path d="M80.7505 47.8574H66.4404V33.5471H80.7505V47.8574Z" fill="#4F5665" />
</svg>
