<svg width="15" height="14" viewBox="0 0 15 14" fill="none" xmlns="http://www.w3.org/2000/svg">
    <path d="M13.7219 5.13128L9.75474 4.55472L7.9813 0.959405C7.93287 0.860968 7.85318 0.78128 7.75474 0.732843C7.50787 0.610968 7.20787 0.71253 7.08443 0.959405L5.31099 4.55472L1.3438 5.13128C1.23443 5.14691 1.13443 5.19847 1.05787 5.27659C0.965306 5.37173 0.914302 5.49972 0.91606 5.63244C0.917818 5.76516 0.972194 5.89176 1.06724 5.98441L3.93755 8.78284L3.25943 12.7344C3.24353 12.8263 3.2537 12.9209 3.28879 13.0073C3.32388 13.0937 3.38249 13.1686 3.45797 13.2234C3.53345 13.2783 3.62278 13.3108 3.71583 13.3175C3.80889 13.3241 3.90193 13.3045 3.98443 13.261L7.53287 11.3953L11.0813 13.261C11.1782 13.3125 11.2907 13.3297 11.3985 13.311C11.6704 13.2641 11.8532 13.0063 11.8063 12.7344L11.1282 8.78284L13.9985 5.98441C14.0766 5.90784 14.1282 5.80784 14.1438 5.69847C14.186 5.42503 13.9954 5.17191 13.7219 5.13128Z" fill="#FF8906" />
</svg>
