<svg width="58" height="59" viewBox="0 0 58 59" fill="none" xmlns="http://www.w3.org/2000/svg">
    <circle cx="29" cy="29.5" r="29" fill="#2948FF" />
    <path d="M41.182 30.5H37.182C36.6515 30.5 36.1428 30.7107 35.7678 31.0858C35.3927 31.4609 35.182 31.9696 35.182 32.5V37.5C35.182 38.0304 35.3927 38.5391 35.7678 38.9142C36.1428 39.2893 36.6515 39.5 37.182 39.5H39.182C39.7124 39.5 40.2211 39.2893 40.5962 38.9142C40.9713 38.5391 41.182 38.0304 41.182 37.5V30.5ZM41.182 30.5C41.182 28.9165 40.8686 27.3486 40.2598 25.8868C39.651 24.425 38.759 23.0981 37.635 21.9826C36.5111 20.8672 35.1775 19.9852 33.7111 19.3875C32.2447 18.7899 30.6745 18.4883 29.091 18.5003C27.5075 18.4883 25.9373 18.7899 24.4709 19.3875C23.0045 19.9852 21.6709 20.8672 20.5469 21.9826C19.423 23.0981 18.5309 24.425 17.9222 25.8868C17.3134 27.3486 17 28.9165 17 30.5V37.5C17 38.0304 17.2107 38.5391 17.5858 38.9142C17.9609 39.2893 18.4696 39.5 19 39.5H21C21.5304 39.5 22.0391 39.2893 22.4142 38.9142C22.7893 38.5391 23 38.0304 23 37.5V32.5C23 31.9696 22.7893 31.4609 22.4142 31.0858C22.0391 30.7107 21.5304 30.5 21 30.5H17" stroke="white" stroke-width="2" stroke-linecap="round" stroke-linejoin="round" />
</svg>
