<svg width="58" height="59" viewBox="0 0 58 59" fill="none" xmlns="http://www.w3.org/2000/svg">
    <circle cx="29" cy="29.5" r="29" fill="#2948FF" />
    <path fill-rule="evenodd" clip-rule="evenodd" d="M29.8203 16.3007L38.6771 19.3233C39.6677 19.6619 40.3332 20.5739 40.3332 21.5952V30.4496C40.3332 33.1336 39.3357 35.7322 37.5259 37.7601C36.6972 38.6894 35.6338 39.4881 34.2755 40.2027L29.4883 42.716C29.3387 42.7933 29.1741 42.8333 29.0081 42.8333C28.8434 42.8333 28.6788 42.7933 28.5292 42.716L23.7324 40.2014C22.3713 39.4854 21.3066 38.6868 20.4793 37.7615C18.6667 35.7308 17.6665 33.1309 17.6665 30.4443C17.6665 29.903 18.1193 29.463 18.6764 29.463C19.2334 29.463 19.6862 29.903 19.6862 30.4443C19.6862 32.6603 20.5094 34.8015 22.0036 36.4762C22.6691 37.2215 23.5486 37.8748 24.6915 38.4748L29.0081 40.7374L33.315 38.4761C34.4552 37.8775 35.3347 37.2241 36.0015 36.4762C37.493 34.8029 38.3148 32.6643 38.3148 30.4496V21.5952C38.3148 21.4059 38.1914 21.2379 38.0089 21.1752L29.1521 18.1526C29.0547 18.1193 28.9463 18.1193 28.8475 18.1526L19.9922 21.1752C19.8097 21.2379 19.6862 21.4059 19.6862 21.5952V24.1285C19.6862 24.6711 19.2334 25.1111 18.6764 25.1111C18.1193 25.1111 17.6665 24.6711 17.6665 24.1285V21.5952C17.6665 20.5739 18.3333 19.6619 19.324 19.3233L28.1793 16.3007C28.709 16.122 29.2921 16.122 29.8203 16.3007ZM28.0482 32.59C27.7792 32.59 27.524 32.486 27.3347 32.302L24.7881 29.8274C24.3943 29.4434 24.3943 28.8248 24.7881 28.4408C25.1833 28.0568 25.8213 28.0568 26.2151 28.4408L28.0482 30.2207L32.5788 25.8195C32.9725 25.4368 33.6119 25.4368 34.0057 25.8195C34.3995 26.2022 34.3995 26.8235 34.0057 27.2061L28.7616 32.302C28.5723 32.486 28.3157 32.59 28.0482 32.59Z" fill="white" />
</svg>
 