<svg width="25" height="24" viewBox="0 0 25 24" fill="none" xmlns="http://www.w3.org/2000/svg">
  <path
    d="M12.9135 17.8812L17.6419 20.8769C18.2463 21.2598 18.9967 20.6903 18.8173 19.9847L17.4512 14.6108C17.4127 14.4611 17.4173 14.3036 17.4643 14.1564C17.5114 14.0092 17.5991 13.8783 17.7172 13.7787L21.9573 10.2496C22.5144 9.78588 22.2269 8.86126 21.5111 8.81481L15.9738 8.45544C15.8247 8.44479 15.6816 8.39198 15.5613 8.30317C15.441 8.21437 15.3484 8.09321 15.2943 7.95382L13.2292 2.75323C13.173 2.60528 13.0732 2.4779 12.943 2.38802C12.8127 2.29814 12.6582 2.25 12.5 2.25C12.3418 2.25 12.1873 2.29814 12.057 2.38802C11.9268 2.4779 11.827 2.60528 11.7708 2.75323L9.70568 7.95382C9.65157 8.09321 9.55897 8.21437 9.43868 8.30317C9.31838 8.39198 9.17533 8.44479 9.02618 8.45544L3.48894 8.81481C2.77315 8.86126 2.4856 9.78588 3.04272 10.2496L7.28278 13.7787C7.40095 13.8783 7.4886 14.0092 7.53566 14.1564C7.58272 14.3036 7.58727 14.4611 7.5488 14.6108L6.28188 19.5945C6.06667 20.4412 6.96715 21.1246 7.69243 20.6651L12.0865 17.8812C12.21 17.8025 12.3535 17.7607 12.5 17.7607C12.6465 17.7607 12.79 17.8025 12.9135 17.8812V17.8812Z"
    stroke="#4F5665" stroke-width="2" stroke-linecap="round" stroke-linejoin="round" />
</svg>