<svg width="24" height="25" viewBox="0 0 24 25" fill="none" xmlns="http://www.w3.org/2000/svg">
<circle cx="12" cy="12.5" r="12" fill="#4F5665"/>
<path d="M12.132 16.572C11.524 16.572 10.948 16.476 10.404 16.284C9.868 16.084 9.436 15.82 9.108 15.492L9.528 14.808C9.8 15.088 10.164 15.32 10.62 15.504C11.084 15.688 11.588 15.78 12.132 15.78C12.828 15.78 13.36 15.628 13.728 15.324C14.104 15.02 14.292 14.612 14.292 14.1C14.292 13.588 14.108 13.18 13.74 12.876C13.38 12.572 12.808 12.42 12.024 12.42H11.424V11.784L14.016 8.532L14.136 8.868H9.456V8.1H14.856V8.712L12.264 11.964L11.844 11.688H12.168C13.176 11.688 13.928 11.912 14.424 12.36C14.928 12.808 15.18 13.384 15.18 14.088C15.18 14.56 15.068 14.984 14.844 15.36C14.62 15.736 14.28 16.032 13.824 16.248C13.376 16.464 12.812 16.572 12.132 16.572Z" fill="white"/>
</svg>