<svg width="24" height="25" viewBox="0 0 24 25" fill="none" xmlns="http://www.w3.org/2000/svg">
  <circle cx="12" cy="12.5" r="12" fill="#4F5665" />
  <path
    d="M9.468 16.5V15.888L12.96 12.468C13.28 12.156 13.52 11.884 13.68 11.652C13.84 11.412 13.948 11.188 14.004 10.98C14.06 10.772 14.088 10.576 14.088 10.392C14.088 9.904 13.92 9.52 13.584 9.24C13.256 8.96 12.768 8.82 12.12 8.82C11.624 8.82 11.184 8.896 10.8 9.048C10.424 9.2 10.1 9.436 9.828 9.756L9.216 9.228C9.544 8.844 9.964 8.548 10.476 8.34C10.988 8.132 11.56 8.028 12.192 8.028C12.76 8.028 13.252 8.12 13.668 8.304C14.084 8.48 14.404 8.74 14.628 9.084C14.86 9.428 14.976 9.832 14.976 10.296C14.976 10.568 14.936 10.836 14.856 11.1C14.784 11.364 14.648 11.644 14.448 11.94C14.256 12.228 13.972 12.556 13.596 12.924L10.392 16.068L10.152 15.732H15.36V16.5H9.468Z"
    fill="white" />
</svg>