<svg width="38" height="14" viewBox="0 0 38 14" fill="none" xmlns="http://www.w3.org/2000/svg">
    <g clip-path="url(#clip0_60_593)">
        <path fill-rule="evenodd" clip-rule="evenodd" d="M6.29992 1.16947C6.28749 1.16947 6.27507 1.16947 6.26264 1.16947C4.59361 1.16947 2.98774 1.55958 1.43156 2.34658C0.799983 3.858 0.443812 5.39444 0.425175 6.96219C0.400326 8.51741 0.718705 10.1102 1.42483 11.7348C3.04986 12.4461 4.67489 12.8112 6.29992 12.8305C7.92494 12.8112 9.54997 12.4461 11.1745 11.7348C11.8811 10.1102 12.1995 8.51741 12.1747 6.96219C12.156 5.39444 11.7998 3.858 11.1683 2.34658C9.61209 1.55958 8.00622 1.16947 6.33719 1.16947C6.32477 1.16947 6.31234 1.16947 6.29992 1.16947Z" fill="#FEFEFE" />
        <path d="M1.16894 2.00078C2.8064 1.15694 4.50597 0.741272 6.26249 0.741272C6.27492 0.741272 6.28734 0.741272 6.29977 0.741272C6.31219 0.741272 6.32461 0.741272 6.33704 0.741272C8.09356 0.741272 9.79313 1.15694 11.4306 2.00078L11.531 2.1077C12.1994 3.69422 12.5809 5.31255 12.5995 6.95591C12.5995 6.9872 12.5995 7.01224 12.5995 7.04405V7.15722C12.5933 8.73748 12.2558 10.3496 11.531 11.9867L11.4182 12.0936C9.71237 12.8555 8.00607 13.2394 6.29977 13.2587C4.59346 13.2394 2.88716 12.8555 1.18137 12.0936L1.06851 11.9867C0.343746 10.3496 0.00621228 8.73748 0 7.15722V7.04405C0 7.01224 0 6.9872 0 6.95591C0.0186368 5.31255 0.400174 3.69422 1.06851 2.1077L1.16894 2.00078ZM6.29977 1.16945C6.28734 1.16945 6.27492 1.16945 6.26249 1.16945C4.59346 1.16945 2.98759 1.55956 1.43141 2.34656C0.79983 3.85798 0.44366 5.39443 0.425023 6.96217C0.400174 8.51739 0.718553 10.1102 1.42468 11.7348C3.04971 12.4461 4.67474 12.8112 6.29977 12.8305C7.92479 12.8112 9.54982 12.4461 11.1743 11.7348C11.881 10.1102 12.1994 8.51739 12.1745 6.96217C12.1559 5.39443 11.7997 3.85798 11.1681 2.34656C9.61194 1.55956 8.00607 1.16945 6.33704 1.16945C6.32461 1.16945 6.31219 1.16945 6.29977 1.16945Z" fill="#003399" />
        <path fill-rule="evenodd" clip-rule="evenodd" d="M6.41259 10.4947C6.3251 9.29204 6.38153 8.03879 6.02536 6.89297C5.69404 5.82278 4.4376 5.21206 4.41275 4.03443C4.38791 3.11496 5.08161 2.05102 6.38153 2.05102C7.60017 2.04476 8.35651 2.93868 8.444 3.93377C8.55013 5.08584 7.16272 5.86033 6.80034 6.95608C6.42501 8.07686 6.53166 9.31708 6.41259 10.4947Z" fill="#003399" />
        <path fill-rule="evenodd" clip-rule="evenodd" d="M6.89242 10.2045C6.8422 9.15931 6.8422 8.15848 7.13004 7.2703C7.44842 6.26321 8.11106 5.41311 9.12366 5.13617C9.81736 4.94737 10.8357 5.76567 10.6736 6.60325C10.5359 7.27708 9.86706 8.07034 8.79234 8.15848C8.29225 8.20229 8.08 8.60544 7.76731 8.83856C9.16715 8.69984 10.0736 8.14596 10.7047 7.56653C10.7984 8.0573 10.861 8.88237 10.4795 9.16557C9.72987 9.70067 9.03617 9.26622 8.15455 9.51813C7.66119 9.66311 7.35472 9.97812 6.89242 10.2045Z" fill="#003399" />
        <path fill-rule="evenodd" clip-rule="evenodd" d="M5.93776 10.2045C5.99367 9.15931 5.98746 8.15848 5.70635 7.2703C5.38745 6.26321 4.72533 5.41311 3.71273 5.13617C3.01902 4.94737 1.994 5.76567 2.16277 6.60325C2.30047 7.27708 2.96881 8.07034 4.04405 8.15848C4.53792 8.20229 4.75639 8.60544 5.06907 8.83856C3.66251 8.69984 2.76277 8.14596 2.1317 7.56653C2.038 8.0573 1.97536 8.88237 2.35638 9.16557C3.10651 9.70067 3.80022 9.26622 4.68132 9.51813C5.1752 9.66311 5.47494 9.97812 5.93776 10.2045Z" fill="#003399" />
        <path fill-rule="evenodd" clip-rule="evenodd" d="M9.26802 11.7599V11.5899L9.3933 11.5586L9.26802 11.3698V11.0548L9.83075 11.8418L9.63092 11.8924L9.49322 11.6968L9.26802 11.7599ZM9.26802 11.0548V11.3698L9.18053 11.2436L9.14326 11.6217L9.26802 11.5899V11.7599L9.12462 11.7918L9.09926 12.0244L8.89943 12.075L9.03092 11.0486L9.23075 10.998L9.26802 11.0548ZM7.40589 12.3081V12.1443H7.44938C7.51823 12.1381 7.56223 12.1318 7.58087 12.125C7.60572 12.1188 7.63057 12.1 7.64351 12.0812C7.66215 12.0562 7.66836 12.0306 7.66836 11.9993C7.66215 11.968 7.65594 11.9425 7.63678 11.9237C7.62436 11.9049 7.59951 11.8924 7.57466 11.8862C7.54981 11.8799 7.49338 11.8799 7.40589 11.8862V11.7224C7.45559 11.7224 7.48717 11.7161 7.49959 11.7161C7.53065 11.7099 7.55602 11.6906 7.57466 11.6718C7.5933 11.653 7.59951 11.628 7.5933 11.5962C7.5933 11.5649 7.58087 11.5399 7.56223 11.5268C7.54981 11.508 7.52444 11.4955 7.48717 11.4955C7.47474 11.4955 7.44938 11.4955 7.40589 11.5018V11.338C7.47474 11.3318 7.52444 11.3318 7.55602 11.338C7.5933 11.338 7.63057 11.3511 7.66215 11.3698C7.69321 11.3824 7.71806 11.4074 7.74343 11.4387C7.76206 11.4705 7.77449 11.508 7.7807 11.5524C7.78691 11.5962 7.77449 11.6405 7.75585 11.6781C7.73721 11.7161 7.70563 11.7474 7.66215 11.7725C7.72427 11.7855 7.77449 11.8105 7.80555 11.8481C7.84334 11.8862 7.86198 11.93 7.86819 11.9868C7.86819 12.0306 7.86198 12.075 7.84955 12.1188C7.83092 12.1631 7.80555 12.1944 7.77449 12.2262C7.73721 12.2512 7.69942 12.27 7.64972 12.2825C7.61814 12.2888 7.53687 12.295 7.41832 12.3081H7.40589ZM8.58674 11.7787L8.78088 11.8043C8.76845 11.9112 8.73687 11.9993 8.68096 12.0624C8.62453 12.1188 8.54326 12.1631 8.44334 12.1819C8.31806 12.2006 8.20572 12.1756 8.11202 12.1063C8.01211 12.0306 7.95568 11.9237 7.92462 11.7725C7.89925 11.6155 7.9184 11.483 7.98674 11.3824C8.04938 11.2817 8.14929 11.2186 8.28079 11.1936C8.39934 11.1743 8.49304 11.1936 8.58053 11.2499C8.63075 11.2817 8.67423 11.3318 8.70581 11.4074L8.52462 11.483C8.50598 11.4387 8.4744 11.4011 8.43713 11.3824C8.39313 11.3573 8.34964 11.3511 8.29943 11.3573C8.23057 11.3698 8.18087 11.4074 8.14308 11.4642C8.10581 11.5268 8.0996 11.6092 8.11823 11.7224C8.14308 11.8418 8.18087 11.9237 8.23057 11.968C8.28079 12.0119 8.34343 12.0306 8.41176 12.0181C8.46198 12.0056 8.49977 11.9806 8.53083 11.9425C8.56189 11.9049 8.58053 11.8481 8.58674 11.7787ZM7.40589 11.338V11.5018C7.38104 11.5018 7.35568 11.508 7.32461 11.508L7.21228 11.5211L7.23091 11.7412L7.36189 11.7287C7.37431 11.7287 7.39347 11.7287 7.40589 11.7224V11.8862C7.40589 11.8862 7.40589 11.8862 7.39968 11.8862L7.24955 11.8987L7.26819 12.1568L7.40589 12.1443V12.3081L7.09321 12.3394L7.00572 11.3761L7.38725 11.3448C7.39347 11.338 7.39968 11.338 7.40589 11.338ZM6.19967 11.9743V11.8105C6.24316 11.8105 6.26853 11.8043 6.28716 11.798C6.31201 11.7918 6.33065 11.7725 6.3498 11.7537C6.36223 11.7287 6.36844 11.7036 6.36844 11.6781C6.37465 11.6405 6.36223 11.6155 6.34307 11.5899C6.32444 11.5649 6.29959 11.5524 6.26853 11.5461C6.24937 11.5461 6.23074 11.5399 6.19967 11.5399V11.3761C6.29338 11.3761 6.3498 11.3824 6.38087 11.3949C6.43729 11.4074 6.48078 11.4387 6.51857 11.4893C6.55584 11.5399 6.57448 11.6024 6.56827 11.6781C6.56827 11.7349 6.55584 11.7855 6.53721 11.8293C6.51184 11.8669 6.48699 11.8987 6.45593 11.9237C6.41814 11.9425 6.38708 11.955 6.3498 11.968C6.31201 11.9743 6.26231 11.9743 6.19967 11.9743ZM6.19967 11.3761V11.5399C6.18104 11.5399 6.15567 11.5399 6.12461 11.5399L6.03091 11.5336V11.8105H6.13082C6.15567 11.8105 6.18104 11.8105 6.19967 11.8105V11.9743C6.18725 11.9743 6.16809 11.9743 6.14946 11.9743H6.02469L6.01848 12.3394L5.82435 12.3331L5.8435 11.3698L6.14946 11.3761C6.16809 11.3761 6.18725 11.3761 6.19967 11.3761ZM4.39345 11.8799V11.5837C4.44988 11.5962 4.48715 11.5962 4.50579 11.5962C4.53116 11.5899 4.5498 11.5837 4.56843 11.5649C4.58086 11.5461 4.59328 11.5268 4.59949 11.4955C4.60571 11.4642 4.59949 11.4387 4.58707 11.4136C4.57464 11.3886 4.5498 11.3761 4.51822 11.3636C4.50579 11.3573 4.46231 11.3511 4.39345 11.338V11.1743L4.47473 11.1873C4.57464 11.2061 4.6435 11.2249 4.68698 11.2499C4.73099 11.2754 4.76205 11.313 4.78069 11.3636C4.79984 11.4074 4.80605 11.4642 4.79363 11.5211C4.78069 11.5899 4.74962 11.6468 4.69993 11.6843C4.65592 11.7224 4.58707 11.7412 4.49958 11.7412C4.53737 11.7725 4.56843 11.8043 4.58707 11.8356C4.61192 11.8736 4.63728 11.93 4.66835 12.0119L4.74962 12.2199L4.52443 12.1756L4.42451 11.9425C4.41209 11.9237 4.40588 11.8987 4.39345 11.8799ZM4.94324 11.2817L5.13064 11.3005L5.08716 11.8231C5.08095 11.9049 5.08095 11.9618 5.08095 11.9806C5.08716 12.0244 5.10579 12.0562 5.13064 12.0812C5.16222 12.1125 5.1995 12.125 5.25592 12.1318C5.31235 12.1381 5.35584 12.125 5.38069 12.1063C5.41227 12.0875 5.4309 12.0624 5.44333 12.0306C5.44954 11.9993 5.45575 11.9425 5.46197 11.8669L5.50597 11.3318L5.69958 11.3511L5.6561 11.8543C5.64989 11.9743 5.63694 12.0562 5.61831 12.1C5.60588 12.1443 5.58103 12.1881 5.55567 12.2132C5.52461 12.245 5.48112 12.27 5.4309 12.2825C5.3869 12.3018 5.32478 12.3018 5.24971 12.295C5.15601 12.2888 5.08716 12.27 5.04315 12.245C4.99967 12.2199 4.96188 12.1881 4.93703 12.1568C4.91218 12.1188 4.89975 12.0812 4.89354 12.0437C4.88733 11.9868 4.88733 11.9049 4.89354 11.798L4.94324 11.2817ZM3.42486 11.5649L3.46213 11.4074L3.86852 11.5143L3.7686 11.8862C3.71839 11.9175 3.65574 11.9362 3.56826 11.9425C3.48698 11.9487 3.41243 11.9425 3.33737 11.9237C3.23693 11.8987 3.15617 11.8543 3.09975 11.798C3.03711 11.7349 2.99983 11.6593 2.98119 11.5774C2.96825 11.4893 2.96825 11.4011 2.99362 11.313C3.01847 11.2186 3.06195 11.1367 3.12459 11.0673C3.18102 11.0048 3.25609 10.9667 3.34358 10.9479C3.41243 10.9291 3.49319 10.9354 3.5812 10.9604C3.69354 10.9917 3.78103 11.0361 3.83072 11.1054C3.88094 11.168 3.90579 11.2499 3.89958 11.338L3.70596 11.3255C3.70596 11.2754 3.69354 11.2311 3.66196 11.1936C3.6309 11.1617 3.59362 11.1305 3.53719 11.1179C3.45592 11.0992 3.38706 11.1054 3.32442 11.143C3.2623 11.181 3.2183 11.2561 3.18724 11.3573C3.15617 11.4705 3.16239 11.5586 3.19345 11.628C3.23072 11.6968 3.28715 11.7412 3.36221 11.7599C3.4057 11.7725 3.44349 11.7725 3.48698 11.7725C3.53098 11.7662 3.56826 11.7537 3.60605 11.7412L3.63711 11.6217L3.42486 11.5649ZM4.39345 11.1743L4.06834 11.1179L3.90579 12.0687L4.09319 12.1L4.16205 11.7036L4.20605 11.7099C4.24954 11.7161 4.28111 11.7287 4.29975 11.7349C4.31839 11.7474 4.33081 11.7662 4.34945 11.7855C4.35566 11.8043 4.37482 11.8356 4.39345 11.8799V11.5837C4.37482 11.5837 4.35566 11.5774 4.33081 11.5774L4.19362 11.5524L4.2309 11.313L4.38103 11.338C4.38724 11.338 4.39345 11.338 4.39345 11.338V11.1743Z" fill="#003399" />
        <path fill-rule="evenodd" clip-rule="evenodd" d="M34.1812 9.997V8.22117H34.9562V5.09821L34.1812 6.65969V2.76224H37.2247L37.9997 11.741H34.9562V9.997H34.1812ZM34.1812 2.76224V6.65969L33.4062 8.22117H34.1812V9.997H32.7187L32.1187 11.6466H30.2312V9.59386L32.3372 5.01632H31.906L33.106 2.76224H34.1812ZM30.2312 5.75326L31.175 3.49917L30.2312 2.97033V5.75326ZM22.7252 4.89063C22.7692 4.63247 22.7692 4.38057 22.7252 4.14118V4.89063ZM30.2312 2.97033V5.75326L30.1065 6.05523C28.2438 4.71435 25.4939 5.93579 25.3375 7.35229C25.1817 8.83189 26.3004 10.0283 29.1565 9.13438L28.175 11.7786C24.4067 12.2005 22.9442 10.6959 22.7252 8.93933V7.94423C22.7817 7.48476 22.9002 7.0378 23.0628 6.62214C24.9192 1.97524 27.9311 3.0204 29.0752 2.93226L29.244 2.41594L30.2312 2.97033ZM30.2312 9.59386L29.2875 11.6466H30.2312V9.59386ZM19.338 11.5898C21.3565 11.1872 23.3377 8.74375 21.3503 6.79842C22.1252 6.38275 22.6067 5.63382 22.7252 4.89063V4.14118C22.5881 3.3667 21.9943 2.73721 20.8755 2.71843L19.338 2.68662V4.41186H19.9753C20.6566 4.41186 20.5691 6.1877 19.719 6.1877H19.338V7.54787C20.2569 7.72414 19.9318 9.00817 19.338 9.40506V11.5898ZM22.7252 7.94423V8.93933C22.688 8.6118 22.688 8.27802 22.7252 7.94423ZM16.6755 2.63029L15.432 5.06065L15.988 5.01632L14.4883 11.6466H18.782C18.9694 11.6466 19.1506 11.6279 19.338 11.5898V9.40506C19.2319 9.48068 19.1128 9.52449 18.9943 9.52449H17.4505L17.963 7.52857H19.119C19.2003 7.52857 19.2754 7.53483 19.338 7.54787V6.1877H18.2628L18.694 4.41186H19.338V2.68662L16.6755 2.63029Z" fill="#003399" />
    </g>
    <defs>
        <clipPath id="clip0_60_593">
            <rect width="38" height="12.5174" fill="white" transform="translate(0 0.741272)" />
        </clipPath>
    </defs>
</svg>
