<svg width="38" height="32" viewBox="0 0 38 32" fill="none" xmlns="http://www.w3.org/2000/svg">
    <g clip-path="url(#clip0_60_579)">
        <path fill-rule="evenodd" clip-rule="evenodd" d="M7.55128 3.26354C7.55128 1.46127 9.02287 0 10.8379 0H27.181C28.996 0 30.4663 1.46127 30.4663 3.26354V19.492C30.4663 21.2943 28.996 22.7555 27.181 22.7555H10.8379C9.02287 22.7555 7.55128 21.2943 7.55128 19.492V3.26354ZM11.5489 20.5257C10.5817 20.5257 9.7969 19.7464 9.7969 18.7847V3.97486C9.7969 3.01444 10.5817 2.23519 11.5489 2.23519H13.5476C16.1823 2.23519 18.1328 4.88465 16.4479 6.56038L11.5609 11.4197L15.7557 15.7835C17.7894 17.8988 15.4069 20.5257 13.1506 20.5257H11.5489ZM17.8927 2.23519H19.5816C22.2149 2.23519 24.1654 4.88465 22.4818 6.56038L17.5935 11.4197L26.5787 20.5217L17.0972 20.5203C19.1335 20.5203 20.42 17.1169 18.2401 14.8631L14.9106 11.4197L18.7861 7.45286C20.8734 5.31624 19.3589 2.56687 17.8927 2.23519ZM28.2193 18.7847L20.9432 11.4197L24.82 7.45286C26.9074 5.31624 25.3915 2.56687 23.9253 2.23519H26.4633C27.4319 2.23519 28.2166 3.01444 28.2166 3.97486L28.2193 18.7847ZM1.50124 29.6329V30.9597H2.09686C2.40674 30.9597 2.64149 30.9011 2.80113 30.7865C2.96076 30.6719 3.04125 30.5041 3.04125 30.2843C3.04125 30.0672 2.96747 29.9047 2.82125 29.7954C2.67503 29.6875 2.45637 29.6329 2.16527 29.6329H1.50124ZM1.50124 27.3711V28.6326H1.96137C2.28198 28.6326 2.52076 28.5779 2.6804 28.4714C2.83869 28.3635 2.91784 28.1996 2.91784 27.9799C2.91784 27.78 2.84406 27.6295 2.69381 27.5256C2.54491 27.4231 2.32357 27.3711 2.03381 27.3711H1.50124ZM0.0175781 26.3534H2.34503C3.0332 26.3534 3.55101 26.476 3.89711 26.7211C4.24455 26.9675 4.4176 27.3325 4.4176 27.8173C4.4176 28.1424 4.32638 28.4141 4.14528 28.6299C3.96418 28.8457 3.69991 29.0015 3.35247 29.0961C3.74284 29.168 4.04199 29.3199 4.25126 29.5517C4.46053 29.7835 4.56516 30.0792 4.56516 30.4388C4.56516 30.969 4.37467 31.3619 3.99236 31.6177C3.61138 31.8721 3.02381 32 2.22966 32H0.0175781V26.3534H0.0175781ZM7.81152 27.6135L7.07505 29.7302H8.52384L7.81152 27.6135ZM6.92749 26.3534H8.75592L10.909 32H9.28848L8.8847 30.8038H6.69542L6.27151 32H4.77175L6.92749 26.3534ZM11.2363 26.3534H13.1291L14.7751 29.7395C14.8314 29.8527 14.8972 30.0112 14.9723 30.2137C15.0461 30.4162 15.1292 30.6653 15.2191 30.9597C15.1722 30.6813 15.136 30.4255 15.1131 30.1924C15.0903 29.9593 15.0796 29.7462 15.0796 29.553V26.3534H16.4479V32H14.5631L12.8528 28.4914C12.7736 28.3302 12.6998 28.1544 12.6328 27.9652C12.567 27.776 12.5053 27.5696 12.449 27.3471C12.5026 27.6841 12.5415 27.9932 12.567 28.2756C12.5925 28.5566 12.6059 28.8057 12.6059 29.0202V32H11.2363V26.3534ZM17.5238 26.3534H19.0396V28.7937L20.801 26.3534H22.4979L20.4093 28.9483L22.7112 32H20.8278L19.0396 29.3812V32H17.5238V26.3534ZM27.122 29.6329V30.9597H27.7189C28.0275 30.9597 28.2622 30.9011 28.4219 30.7865C28.5829 30.6719 28.662 30.5041 28.662 30.2843C28.662 30.0672 28.5896 29.9047 28.442 29.7954C28.2958 29.6875 28.0771 29.6329 27.786 29.6329H27.122ZM27.122 27.3711V28.6326H27.5821C27.9027 28.6326 28.1428 28.5779 28.3011 28.4714C28.4594 28.3635 28.5399 28.1996 28.5399 27.9799C28.5399 27.78 28.4648 27.6295 28.3146 27.5256C28.1657 27.4231 27.9457 27.3711 27.6546 27.3711H27.122ZM25.6383 26.3534H27.9671C28.6553 26.3534 29.1718 26.476 29.5192 26.7211C29.8653 26.9675 30.0383 27.3325 30.0383 27.8173C30.0383 28.1424 29.9485 28.4141 29.7674 28.6299C29.5849 28.8457 29.3207 29.0015 28.9746 29.0961C29.3636 29.168 29.6627 29.3199 29.872 29.5517C30.0813 29.7835 30.1859 30.0792 30.1859 30.4388C30.1859 30.969 29.9954 31.3619 29.6144 31.6177C29.2335 31.8721 28.6446 32 27.8504 32H25.6383V26.3534ZM32.5643 27.3471V28.7951H33.0969C33.4242 28.7951 33.671 28.7351 33.8347 28.6179C33.9984 28.4994 34.0802 28.3222 34.0802 28.0864C34.0802 27.832 33.989 27.6455 33.8065 27.5256C33.6241 27.4057 33.3357 27.3471 32.9399 27.3471H32.5643ZM31.082 26.3534H33.341C34.0936 26.3534 34.6517 26.4746 35.0165 26.7171C35.3814 26.9595 35.5639 27.3285 35.5639 27.824C35.5639 28.1903 35.4673 28.4914 35.2754 28.7271C35.0823 28.9629 34.8046 29.1201 34.4411 29.2C34.7402 29.3079 34.9803 29.617 35.1628 30.1258L35.8415 32H34.2613L33.7609 30.4548C33.6804 30.2057 33.5718 30.0339 33.4323 29.938C33.2941 29.8434 33.0781 29.7954 32.7843 29.7954H32.5643V32H31.082V26.3534ZM36.4653 26.3534H37.9812V32H36.4653V26.3534Z" fill="#1F4396" />
    </g>
    <defs>
        <clipPath id="clip0_60_579">
            <rect width="38" height="32" fill="white" />
        </clipPath>
    </defs>
</svg>
