<svg width="38" height="14" viewBox="0 0 38 14" fill="none" xmlns="http://www.w3.org/2000/svg">
    <g clip-path="url(#clip0_60_607)">
        <path d="M20.649 11.5732C20.6098 12.3098 20.282 12.8137 19.6536 13.1196C19.4709 13.2079 19.3007 13.1379 19.2177 12.9507C19.1535 12.8059 19.2271 12.6417 19.3988 12.5649C19.8441 12.3662 20.0393 11.959 20.0309 11.5752C20.0205 11.1084 19.7418 10.7524 19.3028 10.5992C18.88 10.4523 18.4384 10.595 18.1262 10.9803C17.8867 11.2762 17.8663 11.7875 18.0767 12.1299C18.1931 12.3202 18.347 12.4635 18.5496 12.5591C18.7406 12.6491 18.8079 12.8153 18.7307 12.98C18.6519 13.1478 18.465 13.2016 18.2776 13.1065C17.7744 12.8524 17.4445 12.4572 17.3438 11.8962C17.1846 11.0096 17.7374 10.2144 18.5339 9.99381C19.4756 9.73294 20.3796 10.3289 20.5905 11.191C20.6234 11.3269 20.6333 11.4691 20.649 11.5732Z" fill="#00AA11" />
        <path d="M23.0519 10.6729C23.0571 10.6024 23.0607 10.5464 23.0654 10.4821C23.2283 10.4821 23.3849 10.4821 23.5514 10.4821C23.555 10.5177 23.5618 10.5517 23.5618 10.5856C23.5624 11.1607 23.565 11.7363 23.5608 12.3119C23.5577 12.6669 23.4209 12.9591 23.1041 13.1379C22.7074 13.3627 22.0883 13.2921 21.7339 12.9936C21.7005 12.9654 21.6686 12.9356 21.6295 12.9005C21.7349 12.7965 21.8383 12.6946 21.9521 12.5827C22.129 12.7249 22.3274 12.7965 22.5591 12.7897C22.9167 12.7787 23.0931 12.5827 23.0466 12.2011C22.747 12.4358 22.4171 12.4447 22.0815 12.3323C21.8816 12.2654 21.7239 12.1315 21.6117 11.9444C21.3753 11.5497 21.4363 11.0488 21.7636 10.743C22.1144 10.4152 22.6447 10.3817 23.0519 10.6729ZM23.0315 11.4378C23.0315 11.1042 22.8509 10.9223 22.522 10.9254C22.2125 10.9281 22.0042 11.1314 21.9928 11.4137C21.9781 11.7823 22.2172 11.948 22.5335 11.9438C22.8587 11.9391 23.0315 11.7671 23.0315 11.4378Z" fill="black" />
        <path d="M31.2963 10.4765C30.9967 10.7593 30.7237 11.0175 30.4465 11.2795C30.7284 11.6548 31.004 12.0218 31.2984 12.4139C31.0969 12.4139 30.9304 12.4191 30.7644 12.4102C30.7258 12.4082 30.6798 12.3669 30.6537 12.3318C30.5003 12.1269 30.3526 11.9178 30.2022 11.7108C30.1772 11.6757 30.15 11.6423 30.1051 11.5827C29.9971 11.7066 29.8593 11.8038 29.8123 11.9345C29.7633 12.071 29.8014 12.2388 29.8014 12.4144C29.7116 12.4144 29.6338 12.4144 29.556 12.4144C29.4819 12.4144 29.4073 12.4144 29.3211 12.4144C29.3175 12.3564 29.3128 12.3099 29.3128 12.2628C29.3123 11.5372 29.3159 10.811 29.3086 10.0849C29.3076 9.9453 29.3504 9.90505 29.4819 9.91916C29.5816 9.93014 29.6829 9.92125 29.7998 9.92125C29.7998 10.3625 29.7998 10.788 29.7998 11.2497C29.9517 11.1122 30.0785 10.9998 30.2028 10.8848C30.3296 10.7682 30.4528 10.6479 30.5801 10.5324C30.6078 10.5073 30.6459 10.4796 30.6804 10.4785C30.8725 10.4738 31.0651 10.4765 31.2963 10.4765Z" fill="black" />
        <path d="M27.5451 11.6098C27.5754 11.8147 27.7711 11.9715 27.9966 11.9893C28.1871 12.0045 28.3656 11.9768 28.5212 11.8529C28.5462 11.833 28.5995 11.8173 28.6209 11.8304C28.7253 11.8947 28.8229 11.9689 28.9325 12.0463C28.5948 12.3835 28.2101 12.476 27.7685 12.3668C27.4088 12.2779 27.1484 12.0756 27.0638 11.7065C26.8806 10.9029 27.4986 10.3718 28.2127 10.4931C28.6271 10.5631 28.885 10.8067 28.9821 11.2124C29.0113 11.3337 29.003 11.4639 29.0129 11.6098C28.7535 11.6098 28.5118 11.6098 28.2701 11.6098C28.0321 11.6098 27.7935 11.6098 27.5451 11.6098ZM28.504 11.2396C28.4705 10.9986 28.279 10.8836 27.9569 10.8988C27.7262 10.9092 27.5696 11.041 27.5581 11.2396C27.8713 11.2396 28.1835 11.2396 28.504 11.2396Z" fill="black" />
        <path d="M24.8798 10.4486C25.4509 10.4716 25.8753 10.8277 25.9181 11.3823C25.9468 11.7608 25.7808 12.0646 25.4488 12.2685C25.0683 12.5022 24.4649 12.4394 24.1428 12.1278C23.6595 11.6599 23.8072 10.835 24.4263 10.5762C24.5698 10.5161 24.728 10.4905 24.8798 10.4486ZM25.3992 11.4461C25.3982 11.1314 25.1977 10.9233 24.8945 10.9254C24.5541 10.928 24.3761 11.1476 24.3647 11.4472C24.3537 11.7352 24.6001 11.9663 24.8887 11.9642C25.1972 11.9616 25.4003 11.7556 25.3992 11.4461Z" fill="black" />
        <path d="M26.2173 10.4774C26.3922 10.4774 26.5462 10.4774 26.7216 10.4774C26.7216 10.5208 26.7216 10.5626 26.7216 10.6044C26.7216 11.3045 26.7216 12.0045 26.721 12.7045C26.721 13.0574 26.5154 13.2628 26.1625 13.2639C26.0268 13.2644 25.8906 13.2644 25.7402 13.2644C25.7402 13.1813 25.7402 13.1117 25.7402 13.0422C25.7402 12.9721 25.7402 12.9016 25.7402 12.8069C25.8311 12.8069 25.9135 12.8101 25.9955 12.8059C26.1818 12.797 26.2173 12.7589 26.2173 12.5748C26.2173 11.9281 26.2173 11.2815 26.2173 10.6348C26.2173 10.5867 26.2173 10.5391 26.2173 10.4774Z" fill="black" />
        <path d="M18.3641 11.5803C18.326 11.297 18.6846 10.9561 18.9889 10.976C19.3261 10.9985 19.6049 11.2614 19.6028 11.5986C19.6007 11.9342 19.3094 12.2307 18.9743 12.2218C18.6387 12.2129 18.3443 11.9468 18.3641 11.5803Z" fill="#00AA11" />
        <path d="M6.70117 10.7122H7.22158C7.50502 10.7122 7.67257 10.8722 7.67257 11.1289C7.67257 11.3898 7.50711 11.5424 7.22158 11.5424H6.85933V12.0636H6.70117V10.7122ZM7.21219 11.3919C7.41837 11.3919 7.51285 11.3087 7.51285 11.1289C7.51285 10.9496 7.41419 10.8628 7.21219 10.8628H6.85933V11.3919H7.21219Z" fill="black" />
        <path d="M8.23165 11.0112C8.52083 11.0112 8.71396 11.2292 8.71396 11.5517C8.71396 11.8743 8.52083 12.0923 8.23165 12.0923C7.94456 12.0923 7.75195 11.8743 7.75195 11.5517C7.75195 11.2292 7.94456 11.0112 8.23165 11.0112ZM8.23165 11.1523C8.02965 11.1523 7.90228 11.3066 7.90228 11.5517C7.90228 11.7969 8.02965 11.9512 8.23165 11.9512C8.43418 11.9512 8.56363 11.7969 8.56363 11.5517C8.56363 11.3066 8.43418 11.1523 8.23165 11.1523Z" fill="black" />
        <path d="M8.81055 11.0399H8.95879L9.14357 11.8356H9.14774L9.42126 11.0399H9.55802L9.83206 11.8356H9.83571L10.021 11.0399H10.1693L9.92445 12.0635H9.78195L9.49277 11.2276H9.4886L9.19786 12.0635H9.05483L8.81055 11.0399Z" fill="black" />
        <path d="M10.74 11.0112C11.014 11.0112 11.1967 11.2177 11.1967 11.5188V11.5962H10.42C10.4242 11.7933 10.5494 11.9553 10.7363 11.9553C10.8809 11.9553 10.9618 11.9031 11.0485 11.7504L11.1737 11.8257C11.0871 12.0013 10.9388 12.0923 10.74 12.0923C10.4565 12.0923 10.2676 11.8743 10.2676 11.5517C10.2676 11.2292 10.4628 11.0112 10.74 11.0112ZM11.0448 11.4744C11.0427 11.3798 11.0119 11.3029 10.9561 11.2407C10.9002 11.179 10.8287 11.1482 10.74 11.1482C10.5667 11.1482 10.4278 11.3029 10.4242 11.4744H11.0448Z" fill="black" />
        <path d="M11.4121 11.04H11.5546V11.1252H11.5583C11.5969 11.0615 11.6721 11.0228 11.7702 11.0228C11.801 11.0228 11.836 11.0285 11.8725 11.0384L11.8396 11.1948C11.8031 11.1833 11.7686 11.1775 11.7394 11.1775C11.6183 11.1775 11.5619 11.2585 11.5619 11.4494V12.0636H11.4121V11.04Z" fill="black" />
        <path d="M12.4138 11.0112C12.6873 11.0112 12.8705 11.2177 12.8705 11.5188V11.5962H12.0938C12.0975 11.7933 12.2228 11.9553 12.4096 11.9553C12.5542 11.9553 12.6356 11.9031 12.7223 11.7504L12.8476 11.8257C12.7609 12.0013 12.6121 12.0923 12.4138 12.0923C12.1304 12.0923 11.9414 11.8743 11.9414 11.5517C11.9414 11.2292 12.1361 11.0112 12.4138 11.0112ZM12.7181 11.4744C12.7165 11.3798 12.6857 11.3029 12.6299 11.2407C12.5735 11.179 12.5025 11.1482 12.4138 11.1482C12.2405 11.1482 12.1017 11.3029 12.0975 11.4744H12.7181Z" fill="black" />
        <path d="M13.5037 11.0112C13.6274 11.0112 13.7371 11.0634 13.8044 11.1481H13.8086V10.6541H13.9589V12.0635H13.8143V11.9611H13.8101C13.7428 12.0442 13.629 12.0923 13.5037 12.0923C13.2381 12.0923 13.0449 11.8701 13.0449 11.5517C13.0449 11.2333 13.2381 11.0112 13.5037 11.0112ZM13.8086 11.4514C13.8086 11.2851 13.6734 11.1523 13.5037 11.1523C13.3205 11.1523 13.1953 11.3102 13.1953 11.5517C13.1953 11.7933 13.3205 11.9511 13.5137 11.9511C13.6755 11.9511 13.8086 11.8163 13.8086 11.65V11.4514Z" fill="black" />
        <path d="M14.8784 11.9611V12.0636H14.7344V10.6541H14.8842V11.1482H14.8884C14.9557 11.0635 15.0658 11.0112 15.189 11.0112C15.4552 11.0112 15.6478 11.2334 15.6478 11.5518C15.6478 11.8701 15.4552 12.0923 15.189 12.0923C15.0637 12.0923 14.95 12.0442 14.8826 11.9611H14.8784ZM15.189 11.1523C15.0194 11.1523 14.8842 11.2851 14.8842 11.4514V11.65C14.8842 11.8163 15.0173 11.9512 15.1791 11.9512C15.3722 11.9512 15.4975 11.7933 15.4975 11.5518C15.4975 11.3102 15.3722 11.1523 15.189 11.1523Z" fill="black" />
        <path d="M16.0903 11.9762L15.6973 11.0399H15.8575L16.1676 11.8027H16.1712L16.4839 11.0399H16.6436L16.0308 12.4975H15.8747L16.0903 11.9762Z" fill="black" />
        <path d="M4.14607 0.72998C6.43547 0.72998 8.29162 2.52419 8.29162 4.73716C8.29162 6.95013 6.43547 8.74434 4.14607 8.74434C1.85615 8.74434 0 6.95013 0 4.73716C0 2.52419 1.85615 0.72998 4.14607 0.72998Z" fill="#00AED6" />
        <path fill-rule="evenodd" clip-rule="evenodd" d="M6.56426 4.6138C6.53242 4.10356 6.08352 3.71251 5.55527 3.73552H2.93651C2.84099 3.73552 2.76373 3.66076 2.76373 3.56822C2.76373 3.47621 2.84099 3.40145 2.93651 3.40145H5.58972C5.57459 3.05589 5.3303 2.75895 4.98527 2.66693C4.2117 2.5331 3.41986 2.5331 2.64629 2.66693C2.20678 2.77149 1.87794 3.1249 1.81739 3.55829C1.69629 4.34456 1.69629 5.14339 1.81739 5.92914C1.90978 6.38815 2.28665 6.74312 2.76373 6.82102C3.72261 6.9376 4.69297 6.9376 5.65184 6.82102C6.07934 6.73737 6.40244 6.39808 6.4536 5.97933C6.54129 5.52921 6.57835 5.07124 6.56426 4.6138ZM5.70038 5.17475V5.32166C5.70038 5.41367 5.62313 5.48843 5.52761 5.48843C5.43209 5.48843 5.35483 5.41367 5.35483 5.32166V5.17475C5.29898 5.1277 5.26766 5.05922 5.26871 4.9876C5.26871 4.84906 5.38459 4.73718 5.52761 4.73718C5.67063 4.73718 5.78651 4.84906 5.78651 4.9876C5.78599 5.05869 5.75467 5.12666 5.70038 5.17475Z" fill="white" />
        <path d="M20.1001 4.28665C20.1059 3.58402 19.5212 3.00999 18.7941 3.00424C18.067 2.99902 17.4735 3.56363 17.4678 4.26626C17.462 4.96889 18.0467 5.54343 18.7738 5.54866C18.7806 5.54866 18.7873 5.54866 18.7941 5.54866C19.4837 5.58473 20.073 5.07292 20.11 4.40636C20.1121 4.36663 20.1121 4.32638 20.1106 4.28665H20.1001ZM16.1895 4.28665C16.1895 2.95092 17.2809 1.93253 18.7941 1.93253C20.3073 1.93253 21.3993 2.95719 21.3993 4.28665C21.3993 5.61558 20.3178 6.6439 18.7941 6.6439C17.2705 6.6439 16.1895 5.61871 16.1895 4.28665Z" fill="black" />
        <path d="M14.1179 4.52998C14.1179 5.081 13.5375 5.53164 12.802 5.53164C12.126 5.59803 11.5226 5.12177 11.4542 4.46829C11.4475 4.40242 11.4464 4.33602 11.4511 4.26963C11.4511 3.54138 12.0039 3.04055 12.8537 3.04055C13.5448 3.04055 14.1179 3.49799 14.1179 4.01555V4.52998ZM14.1696 1.92858V2.45607C13.7494 2.08698 13.1924 1.89826 12.6256 1.93224C11.2851 1.94374 10.2088 3.00395 10.2208 4.29943C10.2333 5.5949 11.33 6.63577 12.6704 6.62375C13.2222 6.64779 13.7593 6.44809 14.1523 6.07273V6.52337C14.1523 7.13451 13.6069 7.58202 12.8881 7.58202C12.3395 7.62018 11.7987 7.43668 11.3958 7.07439L10.5559 7.85596C11.1854 8.45299 12.0409 8.77398 12.9226 8.74418C14.3945 8.74418 15.403 7.78904 15.403 6.5171V1.92858H14.1696Z" fill="black" />
        <path d="M22.1602 2.06572H23.3967V2.4599H23.4139C23.8195 2.10232 24.3551 1.91516 24.9032 1.93868C26.2493 1.98783 27.2996 3.08255 27.2489 4.38325C27.2009 5.61598 26.1783 6.60406 24.9032 6.65058C24.3796 6.66209 23.8686 6.49584 23.4588 6.17955V8.41029H22.1706L22.1602 2.06572ZM24.7027 3.04072C24.0116 3.04072 23.4489 3.50496 23.4489 4.00945V4.57354C23.4489 5.11097 24.0048 5.55534 24.7095 5.55534C25.4283 5.59089 26.0405 5.05712 26.0776 4.36286C26.1147 3.66859 25.5624 3.0768 24.8436 3.04072C24.7993 3.03863 24.7544 3.03863 24.7095 3.04072H24.7027Z" fill="black" />
        <path d="M29.7231 3.85589C30.5697 3.74558 30.8218 3.62848 30.8218 3.40158C30.8218 3.10778 30.5008 2.93055 30.0028 2.93055C29.4668 2.88821 28.9787 3.23011 28.8524 3.73565L27.6367 3.4915C27.8095 2.58342 28.7767 1.93568 29.9684 1.93568C31.3161 1.93568 32.1518 2.60329 32.1518 3.68546V6.52055H30.9946V6.02651H30.9774C30.5849 6.45363 30.0091 6.68052 29.4193 6.64079C28.3999 6.64079 27.6915 6.10284 27.6915 5.30506C27.6915 4.50676 28.272 4.04932 29.7231 3.85589ZM30.9257 4.3264H30.9085C30.7942 4.4869 30.5629 4.58047 29.9235 4.68712C29.1672 4.82409 28.8874 4.96786 28.8874 5.22821C28.8874 5.48856 29.1118 5.6156 29.5988 5.6156C30.3416 5.6156 30.9153 5.28153 30.9153 4.85755L30.9257 4.3264Z" fill="black" />
        <path d="M34.4833 6.26984L32.3516 2.06557H33.7719L35.1708 4.9775H35.1916L36.5733 2.06557H38.0004L34.808 8.41014H33.3882L34.4833 6.26984Z" fill="black" />
    </g>
    <defs>
        <clipPath id="clip0_60_607">
            <rect width="38" height="12.5469" fill="white" transform="translate(0 0.726501)" />
        </clipPath>
    </defs>
</svg>
