<svg width="38" height="14" viewBox="0 0 38 14" fill="none" xmlns="http://www.w3.org/2000/svg">
    <path fill-rule="evenodd" clip-rule="evenodd" d="M12.8811 1.14665H17.7679L17.7711 3.09509L16.5679 3.09189L19.4214 9.82344L22.2267 3.09829H20.9914L20.9881 1.15306L24.9033 1.14986L24.8969 2.26005L20.1871 13.1956C19.0515 13.1988 18.3115 12.7893 17.9158 11.9318L14.0393 3.09829H12.8779L12.8811 1.14665ZM6.15425 0.804321C9.55469 0.804321 12.3117 3.56541 12.3117 6.96957C12.3117 10.3737 9.55469 13.1316 6.15425 13.1316C2.75703 13.1316 0 10.3737 0 6.96957C0 3.56541 2.75703 0.804321 6.15425 0.804321ZM6.13816 2.81995C8.28073 2.81995 10.0179 4.698 10.0179 7.01436C10.0179 9.33073 8.28073 11.2056 6.13816 11.2056C3.99238 11.2056 2.25516 9.33073 2.25516 7.01436C2.25516 4.698 3.99238 2.81995 6.13816 2.81995ZM31.8425 0.804321C35.243 0.804321 38 3.56541 38 6.96957C38 10.3737 35.243 13.1316 31.8425 13.1316C28.4453 13.1316 25.6883 10.3737 25.6883 6.96957C25.6883 3.56541 28.4453 0.804321 31.8425 0.804321ZM31.8264 2.81995C33.969 2.81995 35.7062 4.698 35.7062 7.01436C35.7062 9.33073 33.969 11.2056 31.8264 11.2056C29.6807 11.2056 27.9434 9.33073 27.9434 7.01436C27.9434 4.698 29.6807 2.81995 31.8264 2.81995Z" fill="#4C3494" />
</svg>
