<svg width="16" height="16" viewBox="0 0 16 16" fill="none" xmlns="http://www.w3.org/2000/svg">
    <path fill-rule="evenodd" clip-rule="evenodd" d="M7.12583 8.00007C7.12583 8.68207 6.57316 9.23473 5.89116 9.23473C5.20916 9.23473 4.65649 8.68207 4.65649 8.00007C4.65649 7.31807 5.20916 6.7654 5.89116 6.7654H5.89316C6.57449 6.76607 7.12583 7.31873 7.12583 8.00007Z" stroke="#4F5665" stroke-linecap="round" stroke-linejoin="round" />
    <path d="M7.12787 8.00007H11.3399V9.23473" stroke="#4F5665" stroke-linecap="round" stroke-linejoin="round" />
    <path d="M9.45467 9.23473V8.00007" stroke="#4F5665" stroke-linecap="round" stroke-linejoin="round" />
    <path fill-rule="evenodd" clip-rule="evenodd" d="M1.83325 8.00007C1.83325 3.3754 3.37525 1.8334 7.99992 1.8334C12.6246 1.8334 14.1666 3.3754 14.1666 8.00007C14.1666 12.6247 12.6246 14.1667 7.99992 14.1667C3.37525 14.1667 1.83325 12.6247 1.83325 8.00007Z" stroke="#4F5665" stroke-linecap="round" stroke-linejoin="round" />
</svg>
