<svg width="24" height="24" viewBox="0 0 24 24" fill="none" xmlns="http://www.w3.org/2000/svg">
    <g clip-path="url(#clip0_19_374)">
        <path fill-rule="evenodd" clip-rule="evenodd" d="M2.62518 3C1.17544 3 0.000183112 4.17525 0.000183112 5.625V6.72866C-6.13298e-05 6.74219 -6.07448e-05 6.75571 0.000183112 6.76923V18.375C0.000183112 19.8248 1.17543 21 2.62518 21H21.3752C22.8249 21 24.0002 19.8248 24.0002 18.375V6.76898C24.0005 6.75564 24.0005 6.74227 24.0002 6.72891V5.625C24.0002 4.17525 22.8249 3 21.3752 3H2.62518ZM21.7502 6.10544V5.625C21.7502 5.4179 21.5823 5.25 21.3752 5.25H2.62518C2.41808 5.25 2.25018 5.4179 2.25018 5.625V6.10544L12.0002 11.8209L21.7502 6.10544ZM2.25018 8.71353V18.375C2.25018 18.5822 2.41808 18.75 2.62518 18.75H21.3752C21.5823 18.75 21.7502 18.5822 21.7502 18.375V8.71353L12.5691 14.0955C12.2178 14.3015 11.7826 14.3015 11.4312 14.0955L2.25018 8.71353Z" fill="white" />
    </g>
    <defs>
        <clipPath id="clip0_19_374">
            <rect width="24" height="24" fill="white" />
        </clipPath>
    </defs>
</svg>
