<svg width="42" height="42" viewBox="0 0 42 42" fill="none" xmlns="http://www.w3.org/2000/svg">
    <circle cx="21" cy="21" r="21" fill="white" />
    <path fill-rule="evenodd" clip-rule="evenodd" d="M21.9132 10.8398C16.5268 10.8398 12.1934 15.1733 12.1934 20.5597C12.1934 24.8526 14.9878 28.4976 18.8353 29.7935C19.3212 29.8745 19.4832 29.591 19.4832 29.3075C19.4832 29.0646 19.4832 28.4571 19.4832 27.6471C16.7698 28.2546 16.2028 26.3511 16.2028 26.3511C15.7573 25.2171 15.1093 24.9336 15.1093 24.9336C14.2183 24.3261 15.1903 24.3261 15.1903 24.3261C16.1623 24.4071 16.6888 25.3386 16.6888 25.3386C17.5393 26.8371 18.9567 26.3916 19.5237 26.1486C19.6047 25.5006 19.8477 25.0956 20.1312 24.8526C17.9848 24.6096 15.7168 23.7591 15.7168 20.0332C15.7168 18.9802 16.0813 18.0892 16.7293 17.4412C16.6483 17.1982 16.2838 16.2263 16.8103 14.8493C16.8103 14.8493 17.6203 14.6063 19.4832 15.8618C20.2527 15.6593 21.1032 15.5378 21.9132 15.5378C22.7232 15.5378 23.5737 15.6593 24.3432 15.8618C26.2061 14.6063 27.0161 14.8493 27.0161 14.8493C27.5426 16.1858 27.2186 17.1577 27.0971 17.4412C27.7046 18.1297 28.1096 18.9802 28.1096 20.0332C28.1096 23.7591 25.8416 24.5691 23.6547 24.8121C24.0192 25.0956 24.3027 25.7031 24.3027 26.5941C24.3027 27.8901 24.3027 28.9431 24.3027 29.267C24.3027 29.51 24.4647 29.834 24.9912 29.753C28.8386 28.4976 31.633 24.8526 31.633 20.5597C31.633 15.1733 27.2996 10.8398 21.9132 10.8398Z" fill="#2948FF" />
</svg>
