<svg width="42" height="42" viewBox="0 0 42 42" fill="none" xmlns="http://www.w3.org/2000/svg">
    <circle cx="21" cy="21" r="21" fill="white" />
    <path d="M21.0011 12.6708C23.7142 12.6708 24.0355 12.681 25.1073 12.7298C25.7517 12.7377 26.39 12.8561 26.9944 13.0797C27.4327 13.2487 27.8307 13.5077 28.1629 13.8398C28.4951 14.172 28.754 14.5701 28.9231 15.0084C29.1467 15.6128 29.265 16.2511 29.2729 16.8955C29.3213 17.9673 29.3319 18.2886 29.3319 21.0016C29.3319 23.7147 29.3218 24.036 29.2729 25.1077C29.265 25.7522 29.1467 26.3904 28.9231 26.9948C28.754 27.4332 28.4951 27.8312 28.1629 28.1634C27.8307 28.4956 27.4327 28.7545 26.9944 28.9236C26.39 29.1472 25.7517 29.2655 25.1073 29.2734C24.036 29.3218 23.7147 29.3324 21.0011 29.3324C18.2876 29.3324 17.9663 29.3223 16.895 29.2734C16.2506 29.2655 15.6123 29.1472 15.0079 28.9236C14.5696 28.7545 14.1715 28.4956 13.8394 28.1634C13.5072 27.8312 13.2482 27.4332 13.0792 26.9948C12.8556 26.3904 12.7372 25.7522 12.7294 25.1077C12.681 24.036 12.6703 23.7147 12.6703 21.0016C12.6703 18.2886 12.6805 17.9673 12.7294 16.8955C12.7372 16.2511 12.8556 15.6128 13.0792 15.0084C13.2482 14.5701 13.5072 14.172 13.8394 13.8398C14.1715 13.5077 14.5696 13.2487 15.0079 13.0797C15.6123 12.8561 16.2506 12.7377 16.895 12.7298C17.9668 12.6815 18.2881 12.6708 21.0011 12.6708ZM21.0011 10.8398C18.2431 10.8398 17.8957 10.8515 16.8118 10.9008C15.9684 10.9176 15.134 11.0773 14.344 11.3731C13.6664 11.6284 13.0526 12.0285 12.5455 12.5455C12.028 13.0528 11.6276 13.6669 11.3721 14.345C11.0763 15.135 10.9166 15.9694 10.8998 16.8127C10.8515 17.8956 10.8398 18.2431 10.8398 21.0011C10.8398 23.7592 10.8515 24.1066 10.9008 25.1905C10.9176 26.0339 11.0773 26.8683 11.3731 27.6582C11.6283 28.3362 12.0284 28.9504 12.5455 29.4577C13.0529 29.9748 13.667 30.375 14.345 30.6302C15.135 30.926 15.9694 31.0856 16.8127 31.1024C17.8966 31.1508 18.2426 31.1634 21.0021 31.1634C23.7616 31.1634 24.1076 31.1518 25.1915 31.1024C26.0348 31.0856 26.8692 30.926 27.6592 30.6302C28.334 30.3686 28.9468 29.9691 29.4584 29.4572C29.9699 28.9453 30.369 28.3322 30.6302 27.6573C30.926 26.8673 31.0857 26.0329 31.1024 25.1895C31.1508 24.1066 31.1624 23.7592 31.1624 21.0011C31.1624 18.2431 31.1508 17.8956 31.1015 16.8118C31.0847 15.9684 30.925 15.134 30.6292 14.344C30.374 13.666 29.9739 13.0519 29.4568 12.5445C28.9494 12.0274 28.3353 11.6273 27.6573 11.3721C26.8673 11.0763 26.0329 10.9166 25.1895 10.8998C24.1066 10.8515 23.7592 10.8398 21.0011 10.8398Z" fill="#2948FF" />
    <path d="M21.0032 15.7852C19.9712 15.7852 18.9623 16.0912 18.1042 16.6646C17.2461 17.2379 16.5773 18.0529 16.1824 19.0064C15.7874 19.9598 15.6841 21.009 15.8854 22.0212C16.0868 23.0334 16.5837 23.9632 17.3135 24.6929C18.0433 25.4227 18.973 25.9197 19.9852 26.121C20.9974 26.3224 22.0466 26.219 23.0001 25.8241C23.9536 25.4291 24.7685 24.7603 25.3419 23.9022C25.9153 23.0441 26.2213 22.0353 26.2213 21.0032C26.2213 19.6193 25.6715 18.2921 24.693 17.3135C23.7144 16.3349 22.3871 15.7852 21.0032 15.7852ZM21.0032 24.3903C20.3333 24.3903 19.6785 24.1917 19.1215 23.8195C18.5644 23.4473 18.1303 22.9183 17.874 22.2994C17.6176 21.6805 17.5505 20.9995 17.6812 20.3424C17.8119 19.6854 18.1345 19.0819 18.6082 18.6082C19.0819 18.1345 19.6854 17.8119 20.3424 17.6812C20.9995 17.5505 21.6805 17.6176 22.2994 17.874C22.9183 18.1303 23.4473 18.5644 23.8195 19.1215C24.1917 19.6785 24.3903 20.3333 24.3903 21.0032C24.3903 21.9015 24.0335 22.7631 23.3983 23.3983C22.7631 24.0335 21.9015 24.3903 21.0032 24.3903Z" fill="#2948FF" />
    <path d="M26.4264 16.7971C27.0998 16.7971 27.6457 16.2512 27.6457 15.5778C27.6457 14.9043 27.0998 14.3584 26.4264 14.3584C25.753 14.3584 25.207 14.9043 25.207 15.5778C25.207 16.2512 25.753 16.7971 26.4264 16.7971Z" fill="#2948FF" />
</svg>
