<svg width="16" height="16" viewBox="0 0 16 16" fill="none" xmlns="http://www.w3.org/2000/svg">
  <path
    d="M3.99935 7.33333C3.86749 7.33333 3.7386 7.37243 3.62897 7.44568C3.51934 7.51894 3.43389 7.62305 3.38343 7.74487C3.33297 7.86669 3.31977 8.00073 3.34549 8.13006C3.37122 8.25938 3.43471 8.37816 3.52794 8.4714C3.62118 8.56463 3.73997 8.62813 3.86929 8.65385C3.99861 8.67958 4.13265 8.66637 4.25447 8.61591C4.37629 8.56546 4.48041 8.48001 4.55366 8.37038C4.62692 8.26074 4.66602 8.13185 4.66602 8C4.66602 7.82318 4.59578 7.65361 4.47075 7.52859C4.34573 7.40357 4.17616 7.33333 3.99935 7.33333ZM11.9993 7.33333C11.8675 7.33333 11.7386 7.37243 11.629 7.44568C11.5193 7.51894 11.4339 7.62305 11.3834 7.74487C11.333 7.86669 11.3198 8.00073 11.3455 8.13006C11.3712 8.25938 11.4347 8.37816 11.5279 8.4714C11.6212 8.56463 11.74 8.62813 11.8693 8.65385C11.9986 8.67958 12.1327 8.66637 12.2545 8.61591C12.3763 8.56546 12.4804 8.48001 12.5537 8.37038C12.6269 8.26074 12.666 8.13185 12.666 8C12.666 7.82318 12.5958 7.65361 12.4708 7.52859C12.3457 7.40357 12.1762 7.33333 11.9993 7.33333ZM13.3327 3.33333H2.66602C2.13558 3.33333 1.62687 3.54404 1.2518 3.91911C0.876729 4.29419 0.666016 4.8029 0.666016 5.33333V10.6667C0.666016 11.1971 0.876729 11.7058 1.2518 12.0809C1.62687 12.4559 2.13558 12.6667 2.66602 12.6667H13.3327C13.8631 12.6667 14.3718 12.4559 14.7469 12.0809C15.122 11.7058 15.3327 11.1971 15.3327 10.6667V5.33333C15.3327 4.8029 15.122 4.29419 14.7469 3.91911C14.3718 3.54404 13.8631 3.33333 13.3327 3.33333ZM13.9993 10.6667C13.9993 10.8435 13.9291 11.013 13.8041 11.1381C13.6791 11.2631 13.5095 11.3333 13.3327 11.3333H2.66602C2.4892 11.3333 2.31964 11.2631 2.19461 11.1381C2.06959 11.013 1.99935 10.8435 1.99935 10.6667V5.33333C1.99935 5.15652 2.06959 4.98695 2.19461 4.86192C2.31964 4.7369 2.4892 4.66666 2.66602 4.66666H13.3327C13.5095 4.66666 13.6791 4.7369 13.8041 4.86192C13.9291 4.98695 13.9993 5.15652 13.9993 5.33333V10.6667ZM7.99935 5.99999C7.60379 5.99999 7.21711 6.11729 6.88821 6.33706C6.55931 6.55682 6.30296 6.86918 6.15159 7.23463C6.00021 7.60008 5.96061 8.00221 6.03778 8.39018C6.11495 8.77814 6.30543 9.1345 6.58513 9.41421C6.86484 9.69391 7.22121 9.8844 7.60917 9.96157C7.99713 10.0387 8.39926 9.99913 8.76472 9.84775C9.13017 9.69638 9.44252 9.44003 9.66229 9.11114C9.88205 8.78224 9.99935 8.39556 9.99935 8C9.99935 7.46956 9.78864 6.96085 9.41356 6.58578C9.03849 6.21071 8.52978 5.99999 7.99935 5.99999ZM7.99935 8.66666C7.86749 8.66666 7.7386 8.62756 7.62897 8.55431C7.51934 8.48105 7.43389 8.37694 7.38343 8.25512C7.33297 8.1333 7.31977 7.99926 7.34549 7.86994C7.37122 7.74061 7.43471 7.62183 7.52794 7.52859C7.62118 7.43536 7.73997 7.37186 7.86929 7.34614C7.99861 7.32041 8.13265 7.33362 8.25447 7.38408C8.37629 7.43453 8.48041 7.51998 8.55366 7.62961C8.62692 7.73925 8.66602 7.86814 8.66602 8C8.66602 8.17681 8.59578 8.34637 8.47075 8.4714C8.34573 8.59642 8.17616 8.66666 7.99935 8.66666Z"
    fill="#4F5665" />
</svg>