<svg width="24" height="24" viewBox="0 0 24 24" fill="none" xmlns="http://www.w3.org/2000/svg">
  <mask id="mask0_60_548" style="mask-type:luminance" maskUnits="userSpaceOnUse" x="2" y="8" width="20" height="15">
    <path fill-rule="evenodd" clip-rule="evenodd" d="M2 8.79413H21.9996V22.5381H2V8.79413Z" fill="white" />
  </mask>
  <g mask="url(#mask0_60_548)">
    <path fill-rule="evenodd" clip-rule="evenodd"
      d="M17.565 22.5381H6.435C3.99 22.5381 2 20.5491 2 18.1031V13.2281C2 10.7831 3.99 8.79413 6.435 8.79413H7.368C7.782 8.79413 8.118 9.13013 8.118 9.54413C8.118 9.95813 7.782 10.2941 7.368 10.2941H6.435C4.816 10.2941 3.5 11.6101 3.5 13.2281V18.1031C3.5 19.7221 4.816 21.0381 6.435 21.0381H17.565C19.183 21.0381 20.5 19.7221 20.5 18.1031V13.2191C20.5 11.6061 19.188 10.2941 17.576 10.2941H16.633C16.219 10.2941 15.883 9.95813 15.883 9.54413C15.883 9.13013 16.219 8.79413 16.633 8.79413H17.576C20.015 8.79413 22 10.7791 22 13.2191V18.1031C22 20.5491 20.01 22.5381 17.565 22.5381Z"
      fill="#2948FF" />
  </g>
  <mask id="mask1_60_548" style="mask-type:luminance" maskUnits="userSpaceOnUse" x="11" y="2" width="2" height="14">
    <path fill-rule="evenodd" clip-rule="evenodd" d="M11.25 2.00012H12.75V15.541H11.25V2.00012Z" fill="white" />
  </mask>
  <g mask="url(#mask1_60_548)">
    <path fill-rule="evenodd" clip-rule="evenodd"
      d="M12 15.541C11.586 15.541 11.25 15.205 11.25 14.791V2.75C11.25 2.336 11.586 2 12 2C12.414 2 12.75 2.336 12.75 2.75V14.791C12.75 15.205 12.414 15.541 12 15.541Z"
      fill="#2948FF" />
  </g>
  <path fill-rule="evenodd" clip-rule="evenodd"
    d="M9.08374 6.42871C8.89274 6.42871 8.70074 6.35571 8.55474 6.20971C8.26174 5.91771 8.25974 5.44371 8.55274 5.14971L11.4677 2.22171C11.7487 1.93871 12.2487 1.93871 12.5297 2.22171L15.4457 5.14971C15.7377 5.44371 15.7367 5.91771 15.4437 6.20971C15.1497 6.50171 14.6757 6.50171 14.3837 6.20771L11.9987 3.81371L9.61474 6.20771C9.46874 6.35571 9.27574 6.42871 9.08374 6.42871Z"
    fill="#2948FF" />
</svg>