<svg width="16" height="16" viewBox="0 0 16 16" fill="none" xmlns="http://www.w3.org/2000/svg">
  <path
    d="M5.77977 7.80095C6.29842 8.86129 7.15792 9.71689 8.2206 10.2307C8.29835 10.2675 8.38436 10.2835 8.47015 10.277C8.55595 10.2705 8.63857 10.2418 8.7099 10.1937L10.2746 9.15028C10.3438 9.10414 10.4235 9.07598 10.5063 9.06838C10.5891 9.06077 10.6725 9.07394 10.749 9.10671L13.6763 10.3613C13.7757 10.4035 13.8588 10.4769 13.9128 10.5705C13.9669 10.664 13.9892 10.7726 13.9762 10.8798C13.8837 11.6038 13.5304 12.2693 12.9826 12.7516C12.4347 13.2339 11.7299 13.5 11 13.5C8.74566 13.5 6.58365 12.6045 4.98959 11.0104C3.39553 9.41635 2.5 7.25434 2.5 5C2.50004 4.27011 2.76612 3.56526 3.24843 3.01742C3.73073 2.46959 4.39618 2.11634 5.12019 2.02381C5.22745 2.01083 5.33602 2.03306 5.42955 2.08715C5.52307 2.14124 5.59649 2.22426 5.63873 2.3237L6.89439 5.25357C6.92687 5.32935 6.9401 5.41199 6.93291 5.49413C6.92572 5.57626 6.89833 5.65535 6.85318 5.72434L5.81341 7.31307C5.76608 7.38454 5.7381 7.46706 5.73221 7.55257C5.72631 7.63809 5.7427 7.72367 5.77977 7.80095V7.80095Z"
    stroke="#4F5665" stroke-linecap="round" stroke-linejoin="round" />
</svg>