<svg width="24" height="25" viewBox="0 0 24 25" fill="none" xmlns="http://www.w3.org/2000/svg">
    <path d="M4.92265 5.43523L6.4874 7M22 12.5C22 18.0229 17.5229 22.5 12 22.5C6.47715 22.5 2 18.0229 2 12.5H22ZM22 12.5H20H22ZM22 12.5C22 9.7418 20.8833 7.24435 19.0774 5.43523L22 12.5ZM2 12.5H4H2ZM2 12.5C2 9.74175 3.1167 7.24435 4.92265 5.43523L2 12.5ZM12 2.5V4.5V2.5ZM12 2.5C14.7646 2.5 17.2672 3.62189 19.0774 5.43523L12 2.5ZM12 2.5C9.2354 2.5 6.7328 3.62189 4.92265 5.43523L12 2.5ZM19.0774 5.43523L17.5126 7L19.0774 5.43523Z" stroke="white" stroke-linecap="round" stroke-linejoin="round" />
    <path d="M12 10.5V16.5" stroke="white" stroke-linecap="round" stroke-linejoin="round" />
    <path d="M19.926 18.598C18.0976 20.9711 15.2273 22.5 11.9999 22.5C8.77248 22.5 5.90218 20.9711 4.07373 18.598C6.41033 17.2629 9.11603 16.5 11.9999 16.5C14.8837 16.5 17.5894 17.2629 19.926 18.598Z" stroke="white" stroke-linecap="round" stroke-linejoin="round" />
</svg>
