<svg width="24" height="25" viewBox="0 0 24 25" fill="none" xmlns="http://www.w3.org/2000/svg">
    <mask id="mask0_30_537" style="mask-type:luminance" maskUnits="userSpaceOnUse" x="2" y="9" width="20" height="15">
        <path fill-rule="evenodd" clip-rule="evenodd" d="M2.00049 9.2941H22.0001V23.0381H2.00049V9.2941Z" fill="white" />
    </mask>
    <g mask="url(#mask0_30_537)">
        <path fill-rule="evenodd" clip-rule="evenodd" d="M17.5655 23.0381H6.43549C3.99049 23.0381 2.00049 21.0491 2.00049 18.6031V13.7281C2.00049 11.2831 3.99049 9.2941 6.43549 9.2941H7.36849C7.78249 9.2941 8.11849 9.6301 8.11849 10.0441C8.11849 10.4581 7.78249 10.7941 7.36849 10.7941H6.43549C4.81649 10.7941 3.50049 12.1101 3.50049 13.7281V18.6031C3.50049 20.2221 4.81649 21.5381 6.43549 21.5381H17.5655C19.1835 21.5381 20.5005 20.2221 20.5005 18.6031V13.7191C20.5005 12.1061 19.1885 10.7941 17.5765 10.7941H16.6335C16.2195 10.7941 15.8835 10.4581 15.8835 10.0441C15.8835 9.6301 16.2195 9.2941 16.6335 9.2941H17.5765C20.0155 9.2941 22.0005 11.2791 22.0005 13.7191V18.6031C22.0005 21.0491 20.0105 23.0381 17.5655 23.0381Z" fill="#4F5665" />
    </g>
    <mask id="mask1_30_537" style="mask-type:luminance" maskUnits="userSpaceOnUse" x="11" y="2" width="2" height="15">
        <path fill-rule="evenodd" clip-rule="evenodd" d="M11.25 2.50009H12.75V16.041H11.25V2.50009Z" fill="white" />
    </mask>
    <g mask="url(#mask1_30_537)">
        <path fill-rule="evenodd" clip-rule="evenodd" d="M12 16.041C11.586 16.041 11.25 15.705 11.25 15.291V3.25C11.25 2.836 11.586 2.5 12 2.5C12.414 2.5 12.75 2.836 12.75 3.25V15.291C12.75 15.705 12.414 16.041 12 16.041Z" fill="#4F5665" />
    </g>
    <path fill-rule="evenodd" clip-rule="evenodd" d="M9.0852 6.92868C8.8942 6.92868 8.7022 6.85568 8.5562 6.70968C8.2632 6.41768 8.2612 5.94368 8.5542 5.64968L11.4692 2.72168C11.7502 2.43868 12.2502 2.43868 12.5312 2.72168L15.4472 5.64968C15.7392 5.94368 15.7382 6.41768 15.4452 6.70968C15.1512 7.00168 14.6772 7.00168 14.3852 6.70768L12.0002 4.31368L9.6162 6.70768C9.4702 6.85568 9.2772 6.92868 9.0852 6.92868Z" fill="#4F5665" />
</svg>
